<svg width="19" height="25" viewBox="0 0 19 25" fill="none" xmlns="http://www.w3.org/2000/svg">
<path d="M4.75 18.3462C4.51513 18.3462 4.28554 18.4148 4.09026 18.5432C3.89498 18.6717 3.74277 18.8543 3.65289 19.068C3.56301 19.2816 3.5395 19.5167 3.58532 19.7435C3.63114 19.9703 3.74424 20.1787 3.91031 20.3422C4.07639 20.5057 4.28798 20.6171 4.51833 20.6622C4.74868 20.7073 4.98745 20.6842 5.20444 20.5957C5.42142 20.5072 5.60689 20.3573 5.73737 20.165C5.86785 19.9727 5.9375 19.7467 5.9375 19.5154C5.9375 19.2053 5.81239 18.9079 5.58969 18.6887C5.36699 18.4694 5.06494 18.3462 4.75 18.3462ZM4.75 11.3308C4.51513 11.3308 4.28554 11.3994 4.09026 11.5279C3.89498 11.6563 3.74277 11.839 3.65289 12.0526C3.56301 12.2662 3.5395 12.5013 3.58532 12.7282C3.63114 12.955 3.74424 13.1633 3.91031 13.3268C4.07639 13.4903 4.28798 13.6017 4.51833 13.6468C4.74868 13.6919 4.98745 13.6688 5.20444 13.5803C5.42142 13.4918 5.60689 13.3419 5.73737 13.1496C5.86785 12.9574 5.9375 12.7313 5.9375 12.5C5.9375 12.1899 5.81239 11.8925 5.58969 11.6733C5.36699 11.454 5.06494 11.3308 4.75 11.3308ZM14.25 0.807739H4.75C3.49022 0.807739 2.28204 1.30049 1.39124 2.17758C0.500445 3.05467 0 4.24427 0 5.48466V19.5154C0 20.7558 0.500445 21.9454 1.39124 22.8225C2.28204 23.6996 3.49022 24.1924 4.75 24.1924H14.25C15.5098 24.1924 16.718 23.6996 17.6088 22.8225C18.4996 21.9454 19 20.7558 19 19.5154V5.48466C19 4.24427 18.4996 3.05467 17.6088 2.17758C16.718 1.30049 15.5098 0.807739 14.25 0.807739ZM16.625 19.5154C16.625 20.1356 16.3748 20.7304 15.9294 21.169C15.484 21.6075 14.8799 21.8539 14.25 21.8539H4.75C4.12011 21.8539 3.51602 21.6075 3.07062 21.169C2.62522 20.7304 2.375 20.1356 2.375 19.5154V16.5222C3.09224 16.9473 3.91286 17.1735 4.75 17.177H14.25C15.0871 17.1735 15.9078 16.9473 16.625 16.5222V19.5154ZM16.625 12.5C16.625 13.1202 16.3748 13.715 15.9294 14.1536C15.484 14.5921 14.8799 14.8385 14.25 14.8385H4.75C4.12011 14.8385 3.51602 14.5921 3.07062 14.1536C2.62522 13.715 2.375 13.1202 2.375 12.5V9.50681C3.09224 9.93189 3.91286 10.1581 4.75 10.1616H14.25C15.0871 10.1581 15.9078 9.93189 16.625 9.50681V12.5ZM14.25 7.82312H4.75C4.12011 7.82312 3.51602 7.57675 3.07062 7.1382C2.62522 6.69966 2.375 6.10486 2.375 5.48466C2.375 4.86446 2.62522 4.26967 3.07062 3.83112C3.51602 3.39257 4.12011 3.1462 4.75 3.1462H14.25C14.8799 3.1462 15.484 3.39257 15.9294 3.83112C16.3748 4.26967 16.625 4.86446 16.625 5.48466C16.625 6.10486 16.3748 6.69966 15.9294 7.1382C15.484 7.57675 14.8799 7.82312 14.25 7.82312Z" fill="white"/>
</svg>
