<svg width="20" height="23" viewBox="0 0 20 23" fill="none" xmlns="http://www.w3.org/2000/svg">
<path d="M18.8889 6.91924L12.2222 0.877472C11.6111 0.3124 10.82 0 10 0C9.18011 0 8.38896 0.3124 7.77783 0.877472L1.11121 6.91924C0.758287 7.24554 0.476658 7.64581 0.285072 8.09342C0.0934866 8.54102 -0.00365837 9.02569 0.000105326 9.51514V19.5541C0.000105326 20.468 0.351292 21.3445 0.976409 21.9907C1.60153 22.637 2.44937 23 3.33342 23H16.6667C17.5507 23 18.3985 22.637 19.0237 21.9907C19.6488 21.3445 20 20.468 20 19.5541V9.50365C20.0021 9.01613 19.9042 8.53368 19.7127 8.08818C19.5212 7.64267 19.2404 7.24425 18.8889 6.91924ZM12.2222 20.7027H7.77783V14.9596C7.77783 14.655 7.89489 14.3628 8.10326 14.1474C8.31164 13.932 8.59425 13.811 8.88893 13.811H11.1111C11.4058 13.811 11.6884 13.932 11.8968 14.1474C12.1052 14.3628 12.2222 14.655 12.2222 14.9596V20.7027ZM17.7778 19.5541C17.7778 19.8588 17.6607 20.1509 17.4523 20.3663C17.2439 20.5817 16.9613 20.7027 16.6667 20.7027H14.4444V14.9596C14.4444 14.0457 14.0933 13.1692 13.4681 12.523C12.843 11.8768 11.9952 11.5137 11.1111 11.5137H8.88893C8.00488 11.5137 7.15704 11.8768 6.53192 12.523C5.90681 13.1692 5.55562 14.0457 5.55562 14.9596V20.7027H3.33342C3.03873 20.7027 2.75612 20.5817 2.54775 20.3663C2.33937 20.1509 2.22231 19.8588 2.22231 19.5541V9.50365C2.22251 9.34056 2.2563 9.17939 2.32144 9.03085C2.38658 8.88231 2.48157 8.74982 2.60009 8.64218L9.26671 2.6119C9.46947 2.42775 9.73014 2.32619 10 2.32619C10.2699 2.32619 10.5306 2.42775 10.7334 2.6119L17.4 8.64218C17.5185 8.74982 17.6135 8.88231 17.6786 9.03085C17.7438 9.17939 17.7776 9.34056 17.7778 9.50365V19.5541Z" fill="white"/>
</svg>
