<svg width="24" height="25" viewBox="0 0 24 25" fill="none" xmlns="http://www.w3.org/2000/svg">
<path d="M8.80059 0.5C7.84119 0.5 7.03274 1.19589 6.84126 2.09993H5.60066C4.94279 2.09993 4.40068 2.64201 4.40068 3.29986V4.89984C4.40068 5.5577 4.94279 6.09978 5.60066 6.09978H12.0005C12.6584 6.09978 13.2005 5.5577 13.2005 4.89984V3.29986C13.2005 2.64201 12.6584 2.09993 12.0005 2.09993H10.7599C10.5684 1.19589 9.76001 0.5 8.80059 0.5ZM1.20153 2.90144C0.543668 2.90144 0 3.44198 0 4.09985V23.2977C0 23.9556 0.543668 24.5 1.20153 24.5H16.3996C17.0575 24.5 17.6012 23.9556 17.6012 23.2977V21.7477C17.0945 21.9284 16.5583 22.0419 16.0004 22.079V22.4977C16.0006 22.5505 15.9904 22.6028 15.9703 22.6516C15.9502 22.7004 15.9206 22.7448 15.8833 22.7821C15.8459 22.8194 15.8016 22.849 15.7528 22.8691C15.704 22.8892 15.6517 22.8995 15.5989 22.8993H1.99917C1.89309 22.8989 1.79153 22.8563 1.71681 22.781C1.64209 22.7057 1.60034 22.6038 1.60075 22.4977V4.89984C1.60034 4.79376 1.64209 4.69187 1.7168 4.61657C1.79152 4.54126 1.89309 4.4987 1.99917 4.49828H3.60227V3.29986C3.60227 3.1635 3.61643 3.03042 3.64289 2.90144H1.20153ZM13.9599 2.90144C13.9865 3.03039 14.0013 3.16349 14.0013 3.29986V4.49828H15.5989C15.6517 4.49808 15.704 4.50834 15.7528 4.52845C15.8016 4.54856 15.8459 4.57813 15.8833 4.61546C15.9206 4.65279 15.9502 4.69712 15.9703 4.74593C15.9904 4.79474 16.0006 4.84705 16.0004 4.89984V10.12C16.5583 10.1572 17.0945 10.2705 17.6012 10.4512V4.09985C17.6012 3.44198 17.0575 2.90144 16.3996 2.90144H13.9599ZM3.60227 7.69897C3.54948 7.69877 3.49717 7.70903 3.44836 7.72914C3.39955 7.74925 3.3552 7.77882 3.31787 7.81615C3.28054 7.85348 3.25097 7.89781 3.23087 7.94662C3.21076 7.99543 3.20051 8.04774 3.20071 8.10053V12.8988C3.20051 12.9516 3.21076 13.0039 3.23087 13.0527C3.25097 13.1015 3.28054 13.1458 3.31787 13.1832C3.3552 13.2205 3.39955 13.2501 3.44836 13.2702C3.49717 13.2903 3.54948 13.3006 3.60227 13.3004H7.59983C7.65262 13.3006 7.70493 13.2903 7.75374 13.2702C7.80255 13.2501 7.8469 13.2205 7.88423 13.1832C7.92155 13.1458 7.95112 13.1015 7.97123 13.0527C7.99134 13.0039 8.00159 12.9516 8.00139 12.8988V8.10053C8.00159 8.04774 7.99134 7.99543 7.97123 7.94662C7.95112 7.89781 7.92155 7.85348 7.88423 7.81615C7.8469 7.77882 7.80255 7.74925 7.75374 7.72914C7.70493 7.70903 7.65262 7.69877 7.59983 7.69897H3.60227ZM9.20058 7.69897C8.66714 7.69897 8.66714 8.49895 9.20058 8.49895H14.0013C14.5347 8.49895 14.5347 7.69897 14.0013 7.69897H9.20058ZM9.18105 10.0997C8.62842 10.1254 8.66715 10.9253 9.20057 10.8997H11.9997C12.5332 10.8997 12.5332 10.0997 11.9997 10.0997H9.18105ZM15.602 10.8997C12.7349 10.8997 10.4021 13.2324 10.4021 16.0995C10.4021 18.9665 12.7349 21.2993 15.602 21.2993C18.4691 21.2993 20.8011 18.9665 20.8011 16.0995C20.8011 13.2324 18.4691 10.8997 15.602 10.8997ZM9.18105 12.5004C8.62842 12.5261 8.66715 13.326 9.20057 13.3004H9.60212C10.1356 13.3004 10.1356 12.5004 9.60212 12.5004H9.18105ZM15.602 12.5004C17.5855 12.5004 19.2011 14.116 19.2011 16.0995C19.2011 18.0829 17.5855 19.6986 15.602 19.6986C13.6186 19.6986 11.999 18.0829 11.999 16.0995C11.999 14.116 13.6186 12.5004 15.602 12.5004ZM3.58117 14.9011C3.02865 14.9299 3.06952 15.727 3.60149 15.7011H8.39983C8.93327 15.7011 8.93327 14.9011 8.39983 14.9011H3.58117ZM3.60225 17.2979C3.0688 17.2979 3.0688 18.0987 3.60225 18.0987H8.80135C9.3348 18.0987 9.3348 17.2979 8.80135 17.2979H3.60225ZM3.60225 19.6986C3.0688 19.6986 3.0688 20.4986 3.60225 20.4986H5.19909C5.73254 20.4986 5.73254 19.6986 5.19909 19.6986H3.60225ZM6.79984 19.6986C6.26639 19.6986 6.26639 20.4986 6.79984 20.4986H10.0006C10.534 20.4986 10.534 19.6986 10.0006 19.6986H6.79984ZM20.7941 19.6994C20.69 19.7006 20.5905 19.7424 20.5167 19.8158L19.316 21.0158C19.2788 21.053 19.2494 21.0973 19.2294 21.1459C19.2094 21.1946 19.1992 21.2467 19.1993 21.2993C19.1995 21.3519 19.21 21.404 19.2303 21.4525C19.2506 21.5011 19.2803 21.5451 19.3176 21.5822L21.8715 24.1352C22.3555 24.6206 23.1537 24.6194 23.6379 24.1352C24.1221 23.651 24.1199 22.8554 23.6362 22.3712L21.0824 19.8174C21.0446 19.7794 20.9997 19.7494 20.9502 19.7292C20.9006 19.7089 20.8476 19.6988 20.7941 19.6994V19.6994Z" fill="white"/>
</svg>
