<svg width="20" height="21" viewBox="0 0 20 21" fill="none" xmlns="http://www.w3.org/2000/svg">
<path d="M1.42857 14.25C1.04969 14.25 0.686328 14.3817 0.418419 14.6161C0.15051 14.8505 0 15.1685 0 15.5V19.25C0 19.5815 0.15051 19.8995 0.418419 20.1339C0.686328 20.3683 1.04969 20.5 1.42857 20.5C1.80745 20.5 2.17081 20.3683 2.43872 20.1339C2.70663 19.8995 2.85714 19.5815 2.85714 19.25V15.5C2.85714 15.1685 2.70663 14.8505 2.43872 14.6161C2.17081 14.3817 1.80745 14.25 1.42857 14.25ZM7.14286 10.5C6.76398 10.5 6.40061 10.6317 6.13271 10.8661C5.8648 11.1005 5.71429 11.4185 5.71429 11.75V19.25C5.71429 19.5815 5.8648 19.8995 6.13271 20.1339C6.40061 20.3683 6.76398 20.5 7.14286 20.5C7.52174 20.5 7.8851 20.3683 8.15301 20.1339C8.42092 19.8995 8.57143 19.5815 8.57143 19.25V11.75C8.57143 11.4185 8.42092 11.1005 8.15301 10.8661C7.8851 10.6317 7.52174 10.5 7.14286 10.5ZM18.5714 0.5C18.1925 0.5 17.8292 0.631696 17.5613 0.866117C17.2934 1.10054 17.1429 1.41848 17.1429 1.75V19.25C17.1429 19.5815 17.2934 19.8995 17.5613 20.1339C17.8292 20.3683 18.1925 20.5 18.5714 20.5C18.9503 20.5 19.3137 20.3683 19.5816 20.1339C19.8495 19.8995 20 19.5815 20 19.25V1.75C20 1.41848 19.8495 1.10054 19.5816 0.866117C19.3137 0.631696 18.9503 0.5 18.5714 0.5ZM12.8571 5.5C12.4783 5.5 12.1149 5.6317 11.847 5.86612C11.5791 6.10054 11.4286 6.41848 11.4286 6.75V19.25C11.4286 19.5815 11.5791 19.8995 11.847 20.1339C12.1149 20.3683 12.4783 20.5 12.8571 20.5C13.236 20.5 13.5994 20.3683 13.8673 20.1339C14.1352 19.8995 14.2857 19.5815 14.2857 19.25V6.75C14.2857 6.41848 14.1352 6.10054 13.8673 5.86612C13.5994 5.6317 13.236 5.5 12.8571 5.5Z" fill="white"/>
</svg>
