<svg width="22" height="23" viewBox="0 0 22 23" fill="none" xmlns="http://www.w3.org/2000/svg">
<path d="M18.1414 8.73879H12.7864C12.5799 8.73879 12.3818 8.65673 12.2357 8.51066C12.0896 8.36458 12.0075 8.16647 12.0075 7.95989V4.71188C12.0075 4.50531 12.0896 4.30719 12.2357 4.16112C12.3818 4.01505 12.5799 3.93298 12.7864 3.93298H18.1414C18.348 3.93298 18.5461 4.01505 18.6921 4.16112C18.8382 4.30719 18.9203 4.50531 18.9203 4.71188V7.95989C18.9203 8.16647 18.8382 8.36458 18.6921 8.51066C18.5461 8.65673 18.348 8.73879 18.1414 8.73879ZM13.5653 7.18099H17.3625V5.49078H13.5653V7.18099ZM9.95904 5.49078H7.52109C7.31451 5.49078 7.11639 5.40872 6.97032 5.26265C6.82425 5.11658 6.74219 4.91846 6.74219 4.71188C6.74219 4.50531 6.82425 4.30719 6.97032 4.16112C7.11639 4.01505 7.31451 3.93298 7.52109 3.93298H9.95904C10.1656 3.93298 10.3637 4.01505 10.5098 4.16112C10.6559 4.30719 10.7379 4.50531 10.7379 4.71188C10.7379 4.91846 10.6559 5.11658 10.5098 5.26265C10.3637 5.40872 10.1656 5.49078 9.95904 5.49078ZM9.95904 8.73879H7.52109C7.31451 8.73879 7.11639 8.65673 6.97032 8.51066C6.82425 8.36458 6.74219 8.16647 6.74219 7.95989C6.74219 7.75331 6.82425 7.5552 6.97032 7.40913C7.11639 7.26305 7.31451 7.18099 7.52109 7.18099H9.95904C10.1656 7.18099 10.3637 7.26305 10.5098 7.40913C10.6559 7.5552 10.7379 7.75331 10.7379 7.95989C10.7379 8.16647 10.6559 8.36458 10.5098 8.51066C10.3637 8.65673 10.1656 8.73879 9.95904 8.73879ZM18.1375 11.9868H7.52109C7.31451 11.9868 7.11639 11.9047 6.97032 11.7587C6.82425 11.6126 6.74219 11.4145 6.74219 11.2079C6.74219 11.0013 6.82425 10.8032 6.97032 10.6571C7.11639 10.5111 7.31451 10.429 7.52109 10.429H18.1375C18.3441 10.429 18.5422 10.5111 18.6882 10.6571C18.8343 10.8032 18.9164 11.0013 18.9164 11.2079C18.9164 11.4145 18.8343 11.6126 18.6882 11.7587C18.5422 11.9047 18.3441 11.9868 18.1375 11.9868ZM18.1375 15.2348H7.52109C7.31451 15.2348 7.11639 15.1527 6.97032 15.0067C6.82425 14.8606 6.74219 14.6625 6.74219 14.4559C6.74219 14.2493 6.82425 14.0512 6.97032 13.9051C7.11639 13.7591 7.31451 13.677 7.52109 13.677H18.1375C18.3441 13.677 18.5422 13.7591 18.6882 13.9051C18.8343 14.0512 18.9164 14.2493 18.9164 14.4559C18.9164 14.6625 18.8343 14.8606 18.6882 15.0067C18.5422 15.1527 18.3441 15.2348 18.1375 15.2348ZM18.1375 18.4828H7.52109C7.31451 18.4828 7.11639 18.4008 6.97032 18.2547C6.82425 18.1086 6.74219 17.9105 6.74219 17.7039C6.74219 17.4973 6.82425 17.2992 6.97032 17.1532C7.11639 17.0071 7.31451 16.925 7.52109 16.925H18.1375C18.3441 16.925 18.5422 17.0071 18.6882 17.1532C18.8343 17.2992 18.9164 17.4973 18.9164 17.7039C18.9164 17.9105 18.8343 18.1086 18.6882 18.2547C18.5422 18.4008 18.3441 18.4828 18.1375 18.4828Z" fill="white"/>
<path d="M18.6819 22.794H3.32979C2.44699 22.793 1.60065 22.4418 0.976412 21.8176C0.352178 21.1934 0.00103071 20.347 0 19.4642V7.6561C0.00103071 6.7733 0.352178 5.92695 0.976412 5.30272C1.60065 4.67849 2.44699 4.32734 3.32979 4.32631H3.65693V3.52015C3.66105 2.63973 4.01368 1.79678 4.6377 1.17569C5.26171 0.5546 6.1063 0.205923 6.98672 0.205933H18.6702C19.553 0.206963 20.3994 0.558111 21.0236 1.18234C21.6478 1.80658 21.999 2.65293 22 3.53573V19.5032C21.9888 20.3772 21.6347 21.2118 21.0141 21.8273C20.3935 22.4428 19.556 22.79 18.6819 22.794ZM3.32979 5.88411C2.85983 5.88411 2.40912 6.0708 2.0768 6.40311C1.74449 6.73542 1.5578 7.18614 1.5578 7.6561V19.4798C1.56191 19.947 1.75041 20.3938 2.08228 20.7227C2.41415 21.0517 2.86252 21.2362 3.32979 21.2362H18.6819C19.1519 21.2362 19.6026 21.0495 19.9349 20.7172C20.2672 20.3849 20.4539 19.9342 20.4539 19.4642V3.49678C20.4437 3.0336 20.2525 2.59283 19.9213 2.26889C19.5901 1.94495 19.1452 1.76362 18.6819 1.76373H6.99841C6.52844 1.76373 6.07773 1.95042 5.74542 2.28274C5.4131 2.61505 5.22641 3.06576 5.22641 3.53573V18.3932C5.22541 18.7014 5.1621 19.0062 5.0403 19.2893C4.91849 19.5724 4.7407 19.828 4.51761 20.0406C4.29351 20.2543 4.02777 20.4196 3.73698 20.5262C3.44618 20.6327 3.13655 20.6782 2.8274 20.6598C2.72512 20.6544 2.62489 20.629 2.53244 20.5849C2.44 20.5408 2.35715 20.4789 2.28862 20.4028C2.15021 20.249 2.07855 20.0466 2.0894 19.84C2.10024 19.6335 2.19271 19.4396 2.34645 19.3012C2.50019 19.1628 2.70261 19.0912 2.90919 19.102C3.00676 19.1083 3.10459 19.0943 3.19644 19.0608C3.28829 19.0273 3.37217 18.975 3.44273 18.9073C3.51264 18.8403 3.56833 18.7599 3.60647 18.6709C3.64461 18.5819 3.66442 18.4862 3.66472 18.3893V5.88411H3.32979Z" fill="white"/>
</svg>
