<svg width="23" height="23" viewBox="0 0 23 23" fill="none" xmlns="http://www.w3.org/2000/svg">
<path d="M7.35938 6.78316H10.826V1.45996C9.37888 1.93514 8.07745 3.96642 7.35938 6.78316Z" fill="white"/>
<path d="M7.35938 16.2168C8.07745 19.0335 9.37888 21.0648 10.826 21.54V16.2168H7.35938Z" fill="white"/>
<path d="M22.3262 8.13086H0.673828C0.301695 8.13086 0 8.43246 0 8.80469V14.1953C0 14.5674 0.301695 14.8691 0.673828 14.8691H22.3262C22.6983 14.8691 23 14.5674 23 14.1953V8.80469C23 8.43246 22.6983 8.13086 22.3262 8.13086ZM21.5364 10.4537L20.1887 13.149C20.0742 13.3774 19.8413 13.5215 19.5859 13.5215C19.3306 13.5215 19.0977 13.3774 18.9832 13.149L18.2383 11.6592L17.4934 13.149C17.2644 13.6057 16.5169 13.6057 16.2879 13.149L14.9968 10.5663C14.9191 10.4709 14.8749 10.3512 14.8605 10.2233C14.8522 10.3012 14.8352 10.3795 14.7981 10.4537L13.4504 13.149C13.3359 13.3774 13.103 13.5215 12.8477 13.5215C12.5923 13.5215 12.3594 13.3774 12.2449 13.149L11.5 11.6592L10.7551 13.149C10.5261 13.6057 9.77859 13.6057 9.54958 13.149L8.20193 10.4537C8.16621 10.3823 8.15085 10.307 8.14186 10.232C8.12493 10.3772 8.07012 10.5096 7.98145 10.6103L6.71209 13.149C6.59763 13.3774 6.36471 13.5215 6.10938 13.5215C5.85404 13.5215 5.62112 13.3774 5.50661 13.149L4.76172 11.6592L4.01682 13.149C3.90232 13.3774 3.6694 13.5215 3.41406 13.5215C3.15873 13.5215 2.92581 13.3774 2.8113 13.149L1.46364 10.4537C1.29716 10.1208 1.43206 9.71606 1.76503 9.54958C2.09731 9.38508 2.50138 9.51733 2.66917 9.85096L3.41406 11.3408L4.15896 9.85096C4.39736 9.37259 5.11525 9.35246 5.36448 9.85096L6.10938 11.3408L6.85427 9.85096C6.97533 9.60879 7.23 9.47721 7.50047 9.47982C7.84875 9.50268 8.1256 9.78991 8.14025 10.1316C8.14829 9.89256 8.27434 9.66404 8.50331 9.54954C8.83694 9.38503 9.24029 9.51728 9.40745 9.85092L10.1523 11.3408L10.8972 9.85096C11.1263 9.39429 11.8737 9.39429 12.1028 9.85096L12.8477 11.3408L13.5926 9.85096C13.759 9.51733 14.1637 9.38508 14.4967 9.54958C14.7237 9.6631 14.8488 9.8887 14.8589 10.1254C14.872 9.78695 15.1127 9.50515 15.4587 9.48247C15.7364 9.47591 16.0246 9.60883 16.1457 9.85096L16.8906 11.3408L17.6355 9.85096C17.8645 9.39429 18.612 9.39429 18.841 9.85096L19.5859 11.3408L20.3308 9.85096C20.498 9.51733 20.9013 9.38508 21.235 9.54958C21.5679 9.71606 21.7028 10.1208 21.5364 10.4537Z" fill="white"/>
<path d="M12.1719 16.2168V21.54C13.619 21.0648 14.9204 19.0335 15.6385 16.2168H12.1719Z" fill="white"/>
<path d="M12.1719 1.45996V6.78316H15.6385C14.9204 3.96642 13.619 1.93514 12.1719 1.45996Z" fill="white"/>
<path d="M5.97446 16.2168H1.10156C2.9434 20.2608 7.02182 23 11.499 23C9.06486 23 6.9384 20.3193 5.97446 16.2168Z" fill="white"/>
<path d="M17.0245 16.2168C16.0606 20.3193 13.9341 23 11.5 23C15.9772 23 20.0556 20.2608 21.8974 16.2168H17.0245Z" fill="white"/>
<path d="M1.10156 6.7832H5.97446C6.9384 2.68067 9.06486 0 11.499 0C7.02182 0 2.9434 2.73925 1.10156 6.7832Z" fill="white"/>
<path d="M11.5 0C13.9341 0 16.0606 2.68067 17.0245 6.7832H21.8974C20.0556 2.73925 15.9772 0 11.5 0Z" fill="white"/>
</svg>
