<svg width="20" height="19" viewBox="0 0 20 19" fill="none" xmlns="http://www.w3.org/2000/svg">
<path d="M18.6085 0H1.39149C0.625532 0 0 0.627782 0 1.39649V11.2659V14.2639C0 15.0326 0.625532 15.6604 1.39149 15.6604H5.46809L4.34043 18.0904C4.24681 18.2868 4.26383 18.5217 4.37872 18.7053C4.49787 18.889 4.69787 19 4.91915 19H15.0809C15.2979 19 15.5021 18.889 15.6213 18.7053C15.7404 18.5217 15.7532 18.2868 15.6596 18.0904L14.5319 15.6604H18.6085C19.3745 15.6604 20 15.0326 20 14.2639V11.2659V1.39649C20 0.627782 19.3745 0 18.6085 0ZM1.2766 1.39649C1.2766 1.33243 1.32766 1.28119 1.39149 1.28119H18.6085C18.6723 1.28119 18.7234 1.33243 18.7234 1.39649V10.6253H1.2766V1.39649ZM14.0766 17.7231H5.9234L6.88085 15.6646H13.1234L14.0766 17.7231ZM18.7234 14.2681C18.7234 14.3322 18.6723 14.3835 18.6085 14.3835H13.5277H6.47234H1.39149C1.32766 14.3835 1.2766 14.3322 1.2766 14.2681V11.9108H18.7234V14.2681Z" fill="white"/>
<path d="M9.99983 13.7642C10.3403 13.7642 10.6169 13.4866 10.6169 13.145C10.6169 12.8033 10.3403 12.5258 9.99983 12.5258C9.65941 12.5258 9.38281 12.8033 9.38281 13.145C9.38281 13.4866 9.65941 13.7642 9.99983 13.7642Z" fill="white"/>
<path d="M9.06566 7.39246H7.78906V9.42527H9.06566V7.39246Z" fill="white"/>
<path d="M11.9016 6.32056H10.625V9.4253H11.9016V6.32056Z" fill="white"/>
<path d="M14.7453 5.19312H13.4688V9.4253H14.7453V5.19312Z" fill="white"/>
<path d="M17.5735 2.48547H16.2969V9.42523H17.5735V2.48547Z" fill="white"/>
<path d="M7.42613 2.35315H2.42188V3.63434H7.42613V2.35315Z" fill="white"/>
<path d="M6.07294 4.44568H2.42188V5.72687H6.07294V4.44568Z" fill="white"/>
</svg>
