<svg width="27" height="27" viewBox="0 0 27 27" fill="none" xmlns="http://www.w3.org/2000/svg">
<path d="M13.5 18C15.9853 18 18 15.9853 18 13.5C18 11.0147 15.9853 9 13.5 9C11.0147 9 9 11.0147 9 13.5C9 15.9853 11.0147 18 13.5 18Z" stroke="white" stroke-width="2.5" stroke-linecap="round" stroke-linejoin="round"/>
<path d="M21.5613 8.93255L21.4873 8.80446C21.2833 8.45119 21.1791 8.04909 21.186 7.64118L21.2196 5.64C21.2265 5.23103 21.0109 4.85055 20.6565 4.64633L17.5778 2.8722C17.2242 2.6685 16.7882 2.67215 16.4381 2.88174L14.7291 3.90503C14.3799 4.11417 13.9804 4.22462 13.5733 4.22462H13.4251C13.0171 4.22462 12.6168 4.11369 12.267 3.90369L10.5502 2.87299C10.1989 2.66211 9.76076 2.65887 9.40641 2.86453L6.33743 4.64573C5.98475 4.85042 5.77044 5.22993 5.7773 5.63765L5.81101 7.64118C5.81788 8.04909 5.7137 8.45119 5.50964 8.80446L5.43664 8.93083C5.23246 9.28429 4.93598 9.57555 4.57894 9.77341L2.8297 10.7428C2.47116 10.9415 2.24907 11.3194 2.25 11.7294L2.25806 15.2752C2.25898 15.6826 2.48011 16.0576 2.83614 16.2557L4.57699 17.2242C4.93525 17.4235 5.23224 17.7169 5.4359 18.0726L5.51411 18.2093C5.7153 18.5608 5.81789 18.9601 5.81106 19.365L5.77738 21.3598C5.77048 21.7688 5.98611 22.1493 6.34053 22.3535L9.41924 24.1276C9.77274 24.3313 10.2088 24.3277 10.5589 24.1181L12.2678 23.0948C12.6171 22.8857 13.0166 22.7752 13.4237 22.7752H13.5719C13.9799 22.7752 14.3802 22.8861 14.73 23.0961L16.4468 24.1268C16.7981 24.3377 17.2362 24.341 17.5906 24.1353L20.6596 22.3541C21.0122 22.1494 21.2265 21.7699 21.2197 21.3622L21.186 19.3586C21.1791 18.9507 21.2833 18.5486 21.4873 18.1954L21.5603 18.069C21.7645 17.7155 22.061 17.4243 22.418 17.2264L24.1673 16.257C24.5258 16.0583 24.7479 15.6804 24.747 15.2705L24.7389 11.7247C24.738 11.3173 24.5169 10.9422 24.1608 10.7441L22.4158 9.77334C22.0602 9.57551 21.7649 9.28493 21.5613 8.93255Z" stroke="white" stroke-width="2.5" stroke-linecap="round" stroke-linejoin="round"/>
</svg>
