<svg width="20" height="20" viewBox="0 0 20 20" fill="none" xmlns="http://www.w3.org/2000/svg">
<rect width="20" height="20" rx="3" fill="#FFA2C0"/>
<path d="M10 5C7.24 5 5 7.24 5 10C5 12.76 7.24 15 10 15C12.76 15 15 12.76 15 10C15 7.24 12.76 5 10 5ZM9.805 11.42C9.805 11.965 9.38 12.39 8.835 12.39H8.095C7.56 12.39 7.125 11.955 7.125 11.42V10.085C7.125 8.545 7.46 8.2 8.355 7.67C8.415 7.635 8.48 7.62 8.545 7.62C8.675 7.62 8.8 7.685 8.87 7.805C8.975 7.985 8.915 8.215 8.74 8.32C8.135 8.67 7.925 8.8 7.885 9.705H8.84C9.385 9.705 9.81 10.13 9.81 10.675V11.42H9.805ZM12.875 11.42C12.875 11.965 12.45 12.39 11.905 12.39H11.16C10.625 12.39 10.19 11.955 10.19 11.42V10.085C10.19 8.545 10.525 8.2 11.42 7.67C11.48 7.635 11.545 7.62 11.61 7.62C11.74 7.62 11.865 7.685 11.935 7.805C12.04 7.985 11.98 8.215 11.805 8.32C11.2 8.68 10.99 8.81 10.95 9.715H11.905C12.45 9.715 12.875 10.14 12.875 10.685V11.42Z" fill="white"/>
</svg>
