<svg width="21" height="20" viewBox="0 0 21 20" fill="none" xmlns="http://www.w3.org/2000/svg">
<rect x="1" width="20" height="20" rx="3" fill="#7FBA7A"/>
<path fill-rule="evenodd" clip-rule="evenodd" d="M11.1597 4.13489C11.2561 4.04266 11.3837 3.99431 11.5142 4.00052C14.2739 4.08856 16.5803 6.22363 16.9983 9.07722C17.0009 9.09426 17.0009 9.11164 16.9983 9.12868C17.0073 9.2637 16.9644 9.3969 16.8793 9.49883C16.7941 9.60075 16.6736 9.663 16.5444 9.67179L11.9079 9.99766C11.7545 10.0122 11.6025 9.95838 11.489 9.84955C11.3756 9.74073 11.3113 9.58694 11.3119 9.42596L11.0002 4.57222V4.49218C11.0059 4.35567 11.0633 4.22713 11.1597 4.13489ZM10.5807 10.8964L14.371 10.6465L14.3968 10.6569C14.5596 10.6596 14.7146 10.7275 14.8277 10.8457C14.9409 10.9639 15.0029 11.1227 15.0002 11.2871C14.8508 13.5275 13.2551 15.3994 11.0836 15.8817C8.91201 16.364 6.68592 15.3408 5.61968 13.3703C5.30616 12.8028 5.10804 12.1777 5.03695 11.5318C5.00937 11.3404 4.9973 11.1471 5.00085 10.9537C5.00804 8.57137 6.65579 6.51506 8.96138 6.0112C9.24049 5.95742 9.52032 6.10087 9.6421 6.36014C9.67241 6.40719 9.69667 6.45794 9.71429 6.51118C9.75751 7.19793 9.80234 7.87818 9.84698 8.55556C9.88224 9.09053 9.91738 9.62371 9.95151 10.1569C9.94975 10.2825 9.96893 10.4075 10.0082 10.5267C10.1008 10.7611 10.3311 10.9099 10.5807 10.8964Z" fill="white"/>
</svg>
