<svg width="20" height="21" viewBox="0 0 20 21" fill="none" xmlns="http://www.w3.org/2000/svg">
<rect y="0.5" width="20" height="20" rx="3" fill="#FF6628"/>
<path fill-rule="evenodd" clip-rule="evenodd" d="M13.8424 13.2985C14.0973 13.1612 14.2006 12.8275 14.0732 12.5531L12.0097 8.10866C11.9355 7.94893 11.7946 7.83733 11.6309 7.80873C11.4672 7.78012 11.3007 7.838 11.1835 7.96427L8.59434 10.7526L6.85093 6.99755C6.72352 6.72312 6.41365 6.61188 6.15882 6.7491C5.90399 6.88631 5.8007 7.22002 5.92811 7.49445L7.9916 11.9389C8.06576 12.0986 8.2067 12.2102 8.37038 12.2388C8.53406 12.2674 8.70054 12.2096 8.81779 12.0833L11.4069 9.29498L13.1503 13.05C13.2777 13.3244 13.5876 13.4357 13.8424 13.2985Z" fill="white"/>
<path fill-rule="evenodd" clip-rule="evenodd" d="M13.6107 11.1349C14.4654 11.1349 15.1583 11.8811 15.1583 12.8015C15.1583 13.722 14.4654 14.4682 13.6107 14.4682C12.7559 14.4682 12.063 13.722 12.063 12.8015C12.063 11.8811 12.7559 11.1349 13.6107 11.1349ZM8.45193 10.0238C9.30666 10.0238 9.99955 10.77 9.99955 11.6904C9.99955 12.6109 9.30666 13.3571 8.45193 13.3571C7.59721 13.3571 6.90431 12.6109 6.90431 11.6904C6.90431 10.77 7.59721 10.0238 8.45193 10.0238ZM6.38844 5.57932C7.24317 5.57932 7.93606 6.32551 7.93606 7.24598C7.93606 8.16646 7.24317 8.91265 6.38844 8.91265C5.53371 8.91265 4.84082 8.16646 4.84082 7.24598C4.84082 6.32551 5.53371 5.57932 6.38844 5.57932ZM13.0948 8.35709C13.0948 7.43662 12.4019 6.69043 11.5472 6.69043C10.6924 6.69043 9.99955 7.43662 9.99955 8.35709C9.99955 9.27757 10.6924 10.0238 11.5472 10.0238C12.4019 10.0238 13.0948 9.27757 13.0948 8.35709Z" fill="white"/>
</svg>
