<svg width="40" height="40" viewBox="0 0 40 40" fill="none" xmlns="http://www.w3.org/2000/svg">
<circle cx="20" cy="20" r="20" fill="url(#paint0_linear_5909_3292)"/>
<path d="M9 25.5758V25.2437C9.12818 25.0774 9.31184 24.959 9.51991 24.9086C11.3236 24.5641 12.5303 23.4531 13.4385 21.9913C14.2055 20.7655 14.0804 20.4831 12.6715 20.002C12.5912 19.9741 12.5078 19.9524 12.4276 19.9213C12.1176 19.8138 11.8281 19.6575 11.5707 19.4589C10.9288 18.9282 11.3139 18.1648 12.0585 17.991C12.6009 17.8638 13.0759 18.202 13.6022 18.2641C13.9552 18.3076 14.0964 18.1927 14.0547 17.8296C13.9547 16.8935 13.9332 15.9511 13.9905 15.0117C14.0151 14.1836 14.2625 13.376 14.7082 12.6686C15.1539 11.9611 15.7826 11.3782 16.5323 10.9772C17.5595 10.3423 18.7524 10.0033 19.9715 10C21.1906 9.99673 22.3855 10.3292 23.4163 10.9586C24.1121 11.3245 24.7058 11.8479 25.1468 12.484C25.5877 13.1201 25.8628 13.85 25.9485 14.6114C26.056 15.6723 26.056 16.7408 25.9485 17.8017C25.91 18.261 26.0095 18.3479 26.4813 18.2393C27.0686 18.1058 27.5596 17.8141 28.1662 18.0748C28.3336 18.1347 28.4796 18.2401 28.5866 18.3783C28.6936 18.5164 28.7571 18.6815 28.7695 18.8538C28.7634 18.9731 28.7317 19.0898 28.6764 19.1967C28.6212 19.3035 28.5436 19.3981 28.4486 19.4744C28.1497 19.6932 27.8158 19.863 27.4601 19.9772C27.1937 20.0796 26.9209 20.1603 26.661 20.2875C26.1282 20.5296 25.9774 20.8462 26.2245 21.3582C27.0878 23.121 28.3555 24.4617 30.3966 24.9241C30.6356 24.9651 30.8504 25.09 31 25.2748V25.5758C30.9021 25.7535 30.769 25.9107 30.6082 26.0385C30.4474 26.1663 30.2621 26.2622 30.0629 26.3206C29.671 26.4929 29.2544 26.6069 28.8273 26.6589C28.701 26.6518 28.5745 26.6693 28.4554 26.7104C28.3362 26.7515 28.2268 26.8154 28.1337 26.8982C28.0406 26.981 27.9657 27.081 27.9134 27.1924C27.861 27.3038 27.8324 27.4242 27.8292 27.5465C27.7425 28.1144 27.566 28.1951 26.9659 28.1485C26.8247 28.1485 26.6834 28.1113 26.5422 28.0865C25.3676 27.8848 24.2636 27.9996 23.2976 28.7568C23.1036 28.8991 22.9022 29.0317 22.6942 29.1541C21.0478 30.1875 19.3629 30.3054 17.6427 29.3341C17.1742 29.0703 16.7281 28.7661 16.2756 28.4775C15.9012 28.2476 15.4796 28.0993 15.04 28.043C14.3275 27.9375 13.6439 28.0927 12.9507 28.1672C12.5945 28.2044 12.2511 28.1051 12.2318 27.7482C12.1805 26.8885 11.6381 26.6806 10.8903 26.5999C10.5366 26.544 10.1929 26.4395 9.86973 26.2896C9.49385 26.1718 9.18128 25.9153 9 25.5758Z" fill="white"/>
<defs>
<linearGradient id="paint0_linear_5909_3292" x1="36.9294" y1="3.07417" x2="3.07775" y2="36.9258" gradientUnits="userSpaceOnUse">
<stop stop-color="#FFFA00"/>
<stop offset="1" stop-color="#FFBB36"/>
</linearGradient>
</defs>
</svg>
