<svg width="40" height="40" viewBox="0 0 40 40" fill="none" xmlns="http://www.w3.org/2000/svg">
<circle cx="20" cy="20" r="20" fill="url(#paint0_linear_5909_3293)"/>
<path d="M19.9137 23.1148C19.9279 23.5887 19.8248 24.0588 19.6137 24.4833C19.4026 24.9078 19.0899 25.2735 18.7034 25.5481C18.309 25.8341 17.8671 26.0481 17.3982 26.1801C16.8845 26.3266 16.3524 26.3989 15.8182 26.395H9.67188V13.6725H16.4755C16.8926 13.666 17.3045 13.765 17.6732 13.9601C18.025 14.1428 18.3358 14.3955 18.5864 14.7027C18.8407 15.0107 19.0377 15.3617 19.1679 15.7392C19.341 16.2152 19.4076 16.7234 19.3628 17.228C19.318 17.7325 19.163 18.2211 18.9088 18.6591C18.6015 19.2005 18.1237 19.625 17.5499 19.8663C18.2358 20.0535 18.8416 20.4596 19.2753 21.0229C19.7175 21.6285 19.9424 22.3655 19.9137 23.1148ZM12.143 15.7866V19.0067H15.4358C15.6331 19.0101 15.829 18.9738 16.0119 18.9C16.1949 18.8261 16.3611 18.7163 16.5008 18.577C16.6512 18.4207 16.7678 18.2351 16.8434 18.0318C16.919 17.8284 16.9519 17.6117 16.94 17.3951C16.9636 16.9699 16.8195 16.5524 16.5387 16.2322C16.4133 16.0934 16.2595 15.9832 16.0877 15.9091C15.916 15.8349 15.7303 15.7985 15.5433 15.8024L12.143 15.7866ZM17.4235 22.6408C17.4245 22.4185 17.3849 22.1979 17.3066 21.9899C17.2352 21.79 17.1281 21.6048 16.9906 21.4432C16.8627 21.2903 16.7045 21.1655 16.5261 21.0766C16.3428 20.9846 16.1401 20.938 15.9351 20.9407H12.143V24.2904H15.8119C16.0289 24.2908 16.2438 24.2478 16.4439 24.164C16.6374 24.0846 16.8119 23.965 16.9558 23.8132C17.2539 23.4955 17.4199 23.0764 17.4204 22.6408H17.4235Z" fill="white"/>
<path d="M25.2645 26.3824C24.5867 26.3927 23.9138 26.2659 23.2863 26.0095C22.7256 25.7818 22.2173 25.4422 21.7924 25.0113C21.3675 24.5804 21.0349 24.0674 20.8151 23.5036C20.5899 22.9354 20.4751 22.3294 20.4769 21.7181C20.4693 21.094 20.5764 20.4738 20.793 19.8885C21.009 19.3175 21.3401 18.797 21.7657 18.3594C22.1914 17.9217 22.7025 17.5763 23.2673 17.3446C23.9024 17.0834 24.5841 16.9544 25.2708 16.9654C25.9513 16.9541 26.6269 17.0831 27.2553 17.3446C29.1766 18.182 30.0804 20.0433 29.9951 22.0657C29.9935 22.1817 29.9797 22.2971 29.954 22.4102H22.9387C22.9671 22.7396 23.056 23.061 23.2009 23.3582C23.3324 23.6277 23.5149 23.8691 23.7381 24.0692C23.9554 24.2664 24.2086 24.4198 24.4839 24.5211C24.7618 24.625 25.0563 24.6775 25.353 24.676C25.8109 24.6779 26.2615 24.5614 26.6612 24.3378C27.0384 24.1501 27.3364 23.8342 27.5018 23.4467L29.4958 23.9997C29.1418 24.7149 28.5844 25.3097 27.8936 25.7093C27.0965 26.1727 26.1863 26.4058 25.2645 26.3824V26.3824ZM27.625 20.9028C27.5936 20.2794 27.3231 19.692 26.8698 19.2628C26.4301 18.8543 25.8486 18.6333 25.2487 18.6465C24.9481 18.6452 24.6499 18.701 24.3702 18.8109C24.1041 18.918 23.8607 19.0745 23.6528 19.2722C23.4392 19.4751 23.2656 19.7163 23.1409 19.9833C23.0034 20.2715 22.924 20.584 22.907 20.9028H27.625Z" fill="white"/>
<path d="M22.2051 14.2666H28.2882V15.7771H22.2051V14.2666Z" fill="white"/>
<defs>
<linearGradient id="paint0_linear_5909_3293" x1="36.9294" y1="3.07527" x2="3.06203" y2="36.9269" gradientUnits="userSpaceOnUse">
<stop stop-color="#007BB8"/>
<stop offset="1" stop-color="#0044E9"/>
</linearGradient>
</defs>
</svg>
