<svg width="40" height="40" viewBox="0 0 40 40" fill="none" xmlns="http://www.w3.org/2000/svg">
<path d="M20 40C8.93491 40 0 31.0651 0 20C0 8.93491 8.93491 0 20 0C31.0651 0 40 8.93491 40 20C40 31.0651 31.0651 40 20 40Z" fill="#FF7E00"/>
<path d="M30.2376 16.6273H29.4684C28.5808 16.6273 27.8116 15.9172 27.8116 14.9705V14.9113C27.8116 12.7811 26.8648 10.7693 25.2672 9.34918C23.9062 8.10658 22.0128 7.75155 20.1784 7.69238C18.64 7.69238 17.1015 7.69238 15.5631 7.69238C11.4802 7.69238 8.10742 11.006 8.10742 15.148V24.0238C8.10742 27.4557 10.4743 30.4143 13.6696 31.2427C14.2613 31.4202 14.853 31.4794 15.5039 31.4794H24.3796C28.4625 31.4794 31.8353 28.1658 31.8353 24.0238V19.7634V18.2249C31.8944 17.3373 31.1252 16.6273 30.2376 16.6273ZM14.1429 14.1421C14.4388 13.8462 14.853 13.6687 15.3264 13.6687H21.2435C22.1311 13.6687 22.9003 14.4379 22.9003 15.3255C22.9003 15.7989 22.7228 16.2131 22.427 16.509C22.1311 16.8048 21.7169 16.9823 21.2435 16.9823H15.3264C14.4388 16.9823 13.6696 16.2131 13.6696 15.3255C13.6696 14.8521 13.8471 14.4379 14.1429 14.1421ZM13.6696 24.5563C13.6696 24.0829 13.8471 23.6687 14.1429 23.3729C14.4388 23.077 14.853 22.8995 15.3264 22.8995H24.6163C25.5039 22.8995 26.2731 23.6687 26.2731 24.5563C26.2731 25.0297 26.0956 25.4439 25.7998 25.7397C25.5039 26.0356 25.0897 26.2131 24.6163 26.2131H15.3264C14.4388 26.2131 13.6696 25.4439 13.6696 24.5563Z" fill="white"/>
</svg>
