<svg width="40" height="40" viewBox="0 0 40 40" fill="none" xmlns="http://www.w3.org/2000/svg">
<circle cx="20" cy="20" r="20" fill="url(#paint0_linear_5909_3291)"/>
<path d="M19.9847 8C17.612 8.00315 15.2934 8.73895 13.322 10.1144C11.3507 11.4898 9.81497 13.4432 8.90906 15.7275C8.00316 18.0119 7.7677 20.5247 8.23245 22.9484C8.6972 25.3721 9.8413 27.5979 11.5201 29.3445C13.199 31.091 15.3372 32.28 17.6646 32.761C19.9919 33.242 22.4039 32.9935 24.5957 32.047C26.7876 31.1004 28.6608 29.4982 29.9787 27.443C31.2966 25.3877 32 22.9716 32 20.5C31.9939 17.184 30.7256 14.0058 28.4732 11.6625C26.2207 9.31923 23.1681 8.0021 19.9847 8ZM27.8903 13.8992C29.3093 15.7241 30.0989 17.9924 30.1327 20.3406C28.5856 20.0276 27.0135 19.8688 25.4375 19.8662C24.6638 19.8644 23.8908 19.911 23.1225 20.0057C23.0574 19.8383 22.9923 19.6709 22.9196 19.5035C22.7168 19.0053 22.4987 18.507 22.2691 18.0207C25.824 16.4941 27.5344 14.3815 27.8903 13.8992ZM19.9847 9.95712C22.4462 9.95537 24.8241 10.8877 26.6735 12.5799C26.3903 12.9785 24.8559 14.9715 21.4311 16.3307C20.3103 14.217 19.0629 12.1788 17.6964 10.2282C18.4495 10.048 19.2197 9.95709 19.9923 9.95712H19.9847ZM15.6263 10.9815C16.9625 12.9211 18.2014 14.9313 19.338 17.0043C16.3374 17.8138 13.2538 18.2421 10.1543 18.2798H10.0549C10.3876 16.7023 11.0618 15.2248 12.026 13.96C12.9902 12.6952 14.219 11.6765 15.6186 10.9815H15.6263ZM9.83292 20.5159C9.83292 20.4322 9.83292 20.3445 9.83292 20.2569H10.1008C13.5303 20.2355 16.9412 19.7313 20.2411 18.7581C20.5128 19.3122 20.773 19.8782 21.0064 20.4442C20.8954 20.4801 20.7806 20.5119 20.6697 20.5518C15.5957 22.2578 12.8061 26.7779 12.3776 27.5153C10.7301 25.5878 9.82035 23.0967 9.82144 20.5159H9.83292ZM19.9847 31.0788C17.7425 31.0819 15.563 30.3078 13.7895 28.8785C14.0804 28.2846 16.185 24.3385 21.7449 22.3216C22.6974 24.8925 23.4161 27.5508 23.8916 30.2616C22.6495 30.804 21.3162 31.0832 19.9694 31.0828L19.9847 31.0788ZM25.7245 29.2173C25.2731 26.6929 24.6216 24.2118 23.7768 21.7994C24.4531 21.6932 25.1362 21.6399 25.8202 21.64C27.2294 21.64 28.6318 21.8439 29.9872 22.2458C29.7619 23.6463 29.2683 24.9852 28.536 26.1828C27.8037 27.3805 26.8475 28.4125 25.7245 29.2173Z" fill="white"/>
<defs>
<linearGradient id="paint0_linear_5909_3291" x1="0" y1="20" x2="40" y2="20" gradientUnits="userSpaceOnUse">
<stop stop-color="#FF679A"/>
<stop offset="0.79" stop-color="#E72096"/>
<stop offset="1" stop-color="#E00D95"/>
</linearGradient>
</defs>
</svg>
