<svg width="22" height="22" viewBox="0 0 22 22" fill="none" xmlns="http://www.w3.org/2000/svg">
<path d="M21.1879 11.4986C21.1875 9.47409 20.607 7.49213 19.5152 5.78731C18.4234 4.08248 16.866 2.72619 15.0273 1.87899C13.1886 1.03179 11.1457 0.729167 9.14037 1.00694C7.13505 1.28471 5.25131 2.13125 3.71215 3.44634C2.17299 4.76142 1.04287 6.48999 0.455572 8.4274C-0.131722 10.3648 -0.151595 12.4299 0.398305 14.3783C0.948205 16.3266 2.04485 18.0766 3.55842 19.4211C5.07198 20.7656 6.93909 21.6482 8.93869 21.9645V14.5686H6.24913V11.4986H8.93869V9.1653C8.8808 8.62028 8.94349 8.06919 9.1223 7.55109C9.30112 7.03299 9.59169 6.56055 9.97343 6.16726C10.3552 5.77397 10.8187 5.46944 11.3313 5.27526C11.8438 5.08108 12.3928 5.00199 12.9393 5.04361C13.7337 5.0549 14.5263 5.12427 15.3106 5.25117V7.85771H13.9753C13.7474 7.82687 13.5154 7.84781 13.2967 7.91897C13.0779 7.99013 12.878 8.10967 12.7118 8.26871C12.5456 8.42776 12.4174 8.62221 12.3367 8.83763C12.256 9.05304 12.2249 9.28387 12.2457 9.51296V11.4986H15.1861L14.7174 14.5686H12.2492V21.9714C14.7422 21.5763 17.0124 20.3044 18.6511 18.3844C20.2898 16.4645 21.1893 14.0227 21.1879 11.4986Z" fill="#1877F2"/>
</svg>
