<svg width="40" height="40" viewBox="0 0 40 40" fill="none" xmlns="http://www.w3.org/2000/svg">
<path d="M20 40C8.93491 40 0 31.0651 0 20C0 8.93491 8.93491 0 20 0C31.0651 0 40 8.93491 40 20C40 31.0651 31.0651 40 20 40Z" fill="white"/>
<path d="M32.5454 17.6924C32.5454 17.6924 32.7229 19.5267 32.7229 20.1184C32.7229 20.7693 32.5454 22.6628 32.5454 22.6628C32.1312 25.503 31.0069 28.0474 28.9951 29.8817L24.7939 26.7456C25.0898 26.5089 25.4448 26.3314 25.6815 26.0356C26.6874 25.148 27.1608 23.9646 27.3975 22.6628H20.2969V17.6924H27.3383H32.5454Z" fill="#0086FD"/>
<path d="M29.0537 10.4734L25.3259 14.142C23.9649 13.0178 22.3081 12.1894 20.4738 12.1894C17.0418 12.1894 14.0833 14.4379 13.0182 17.5148L8.75781 14.3196C10.888 10.0592 15.3259 7.10061 20.4146 7.10061C23.6691 7.04144 26.746 8.40239 29.0537 10.4734C29.0537 10.4142 29.0537 10.4142 29.0537 10.4734Z" fill="#FF3D27"/>
<path d="M28.9931 29.8817C26.6854 31.9527 23.6085 33.077 20.2949 33.077C15.2061 33.077 10.8274 30.1775 8.69727 25.9172L12.9576 22.7219C14.0227 25.858 16.9813 28.0474 20.4724 28.0474C22.07 28.0474 23.5493 27.574 24.8511 26.7456L28.9931 29.8817Z" fill="#00AB3F"/>
<path d="M12.9592 22.6627L8.69883 25.858C7.81126 24.142 7.33789 22.1302 7.33789 20.0592C7.33789 17.9882 7.81126 15.9764 8.69883 14.2604L12.9592 17.4556C12.6633 18.284 12.545 19.1716 12.545 20.0592C12.545 21.0059 12.6633 21.8343 12.9592 22.6627Z" fill="#FFBE00"/>
</svg>
