<svg width="48" height="48" viewBox="0 0 48 48" fill="none" xmlns="http://www.w3.org/2000/svg">
<g filter="url(#filter0_d_3017_1840)">
<path d="M44 20C44 31.05 35.05 40 24 40C12.95 40 4 31.05 4 20C4 8.95 12.95 0 24 0C35.05 0 44 8.95 44 20Z" fill="url(#paint0_linear_3017_1840)"/>
<path d="M29.2881 13.7733C29.0599 13.7733 28.8368 13.841 28.647 13.9679C28.4573 14.0948 28.3095 14.2751 28.2223 14.486C28.1351 14.6969 28.1124 14.9289 28.1571 15.1528C28.2019 15.3766 28.312 15.5821 28.4736 15.7432C28.6352 15.9044 28.841 16.014 29.0649 16.0582C29.2889 16.1023 29.5208 16.0791 29.7315 15.9913C29.9422 15.9036 30.1221 15.7553 30.2485 15.5652C30.3749 15.3751 30.442 15.1519 30.4414 14.9236C30.4406 14.6183 30.3188 14.3257 30.1026 14.1101C29.8863 13.8944 29.5934 13.7733 29.2881 13.7733Z" fill="white"/>
<path d="M24.1638 15.2509C23.2063 15.2509 22.2702 15.5348 21.474 16.0668C20.6778 16.5988 20.0573 17.355 19.6908 18.2396C19.3244 19.1243 19.2285 20.0978 19.4153 21.037C19.6021 21.9761 20.0632 22.8388 20.7403 23.5159C21.4174 24.193 22.2801 24.6542 23.2193 24.841C24.1585 25.0278 25.1319 24.9319 26.0166 24.5655C26.9013 24.199 27.6575 23.5785 28.1895 22.7823C28.7215 21.9861 29.0054 21.05 29.0054 20.0924C29.0038 18.8089 28.4932 17.5783 27.5856 16.6707C26.678 15.763 25.4474 15.2524 24.1638 15.2509ZM24.1638 23.192C23.55 23.1926 22.9497 23.0111 22.439 22.6704C21.9283 22.3297 21.5302 21.8452 21.295 21.2781C21.0598 20.7111 20.9981 20.087 21.1177 19.4849C21.2374 18.8828 21.5329 18.3297 21.967 17.8956C22.4011 17.4615 22.9542 17.1659 23.5563 17.0463C24.1584 16.9267 24.7825 16.9884 25.3495 17.2236C25.9166 17.4588 26.4011 17.8569 26.7418 18.3676C27.0825 18.8783 27.264 19.4785 27.2634 20.0924C27.2626 20.9142 26.9358 21.7022 26.3547 22.2833C25.7736 22.8644 24.9857 23.1912 24.1638 23.192Z" fill="white"/>
<path d="M28.0068 29.9198H20.1587C18.5931 29.9182 17.0922 29.2956 15.9851 28.1886C14.8781 27.0816 14.2555 25.5806 14.2539 24.015V16.167C14.2531 14.5999 14.8747 13.0966 15.982 11.9876C17.0892 10.8786 18.5916 10.2548 20.1587 10.2532H28.0068C29.5723 10.2548 31.0733 10.8774 32.1803 11.9844C33.2873 13.0914 33.91 14.5924 33.9116 16.158V24.006C33.9124 25.5731 33.2908 27.0764 32.1835 28.1854C31.0762 29.2944 29.5739 29.9182 28.0068 29.9198ZM20.1587 12.1123C19.0833 12.1131 18.0521 12.5405 17.2914 13.3006C16.5307 14.0607 16.1026 15.0916 16.101 16.167V24.015C16.1026 25.0904 16.5307 26.1213 17.2914 26.8814C18.0521 27.6416 19.0833 28.0689 20.1587 28.0697H28.0068C29.0819 28.0689 30.1127 27.6415 30.873 26.8812C31.6332 26.121 32.0606 25.0902 32.0614 24.015V16.167C32.0606 15.0919 31.6332 14.061 30.873 13.3008C30.1127 12.5406 29.0819 12.1131 28.0068 12.1123H20.1587Z" fill="white"/>
</g>
<defs>
<filter id="filter0_d_3017_1840" x="0" y="0" width="48" height="48" filterUnits="userSpaceOnUse" color-interpolation-filters="sRGB">
<feFlood flood-opacity="0" result="BackgroundImageFix"/>
<feColorMatrix in="SourceAlpha" type="matrix" values="0 0 0 0 0 0 0 0 0 0 0 0 0 0 0 0 0 0 127 0" result="hardAlpha"/>
<feOffset dy="4"/>
<feGaussianBlur stdDeviation="2"/>
<feComposite in2="hardAlpha" operator="out"/>
<feColorMatrix type="matrix" values="0 0 0 0 0 0 0 0 0 0 0 0 0 0 0 0 0 0 0.25 0"/>
<feBlend mode="normal" in2="BackgroundImageFix" result="effect1_dropShadow_3017_1840"/>
<feBlend mode="normal" in="SourceGraphic" in2="effect1_dropShadow_3017_1840" result="shape"/>
</filter>
<linearGradient id="paint0_linear_3017_1840" x1="40.2162" y1="-2.52252" x2="7.6036" y2="42.8829" gradientUnits="userSpaceOnUse">
<stop stop-color="#FFE185"/>
<stop offset="0.21" stop-color="#FFBB36"/>
<stop offset="0.38" stop-color="#FF5176"/>
<stop offset="0.52" stop-color="#F63395"/>
<stop offset="0.74" stop-color="#A436D2"/>
<stop offset="1" stop-color="#5F4EED"/>
</linearGradient>
</defs>
</svg>
