<svg width="40" height="40" viewBox="0 0 40 40" fill="none" xmlns="http://www.w3.org/2000/svg">
<path d="M40 20C40 31.05 31.05 40 20 40C8.95 40 0 31.05 0 20C0 8.95 8.95 0 20 0C31.05 0 40 8.95 40 20Z" fill="url(#paint0_linear_3017_2374)"/>
<path d="M25.2881 13.7734C25.0599 13.7734 24.8368 13.8411 24.647 13.968C24.4573 14.0948 24.3095 14.2751 24.2223 14.4861C24.1351 14.697 24.1124 14.929 24.1571 15.1528C24.2019 15.3766 24.312 15.5821 24.4736 15.7433C24.6352 15.9045 24.841 16.0141 25.0649 16.0583C25.2889 16.1024 25.5208 16.0792 25.7315 15.9914C25.9422 15.9036 26.1221 15.7553 26.2485 15.5653C26.3749 15.3752 26.442 15.152 26.4414 14.9237C26.4406 14.6184 26.3188 14.3258 26.1026 14.1101C25.8863 13.8945 25.5934 13.7734 25.2881 13.7734Z" fill="white"/>
<path d="M20.1638 15.2509C19.2063 15.2509 18.2702 15.5349 17.474 16.0669C16.6778 16.5989 16.0573 17.355 15.6908 18.2397C15.3244 19.1244 15.2285 20.0979 15.4153 21.037C15.6021 21.9762 16.0632 22.8389 16.7403 23.516C17.4174 24.1931 18.2801 24.6542 19.2193 24.8411C20.1585 25.0279 21.1319 24.932 22.0166 24.5655C22.9013 24.1991 23.6575 23.5785 24.1895 22.7823C24.7215 21.9861 25.0054 21.0501 25.0054 20.0925C25.0038 18.8089 24.4932 17.5784 23.5856 16.6707C22.678 15.7631 21.4474 15.2525 20.1638 15.2509ZM20.1638 23.1921C19.55 23.1927 18.9497 23.0111 18.439 22.6705C17.9283 22.3298 17.5302 21.8452 17.295 21.2782C17.0598 20.7111 16.9981 20.0871 17.1177 19.485C17.2374 18.8828 17.5329 18.3297 17.967 17.8957C18.4011 17.4616 18.9542 17.166 19.5563 17.0464C20.1584 16.9268 20.7825 16.9885 21.3495 17.2237C21.9166 17.4589 22.4011 17.857 22.7418 18.3677C23.0825 18.8784 23.264 19.4786 23.2634 20.0925C23.2626 20.9143 22.9358 21.7022 22.3547 22.2834C21.7736 22.8645 20.9857 23.1913 20.1638 23.1921Z" fill="white"/>
<path d="M24.0068 29.9199H16.1587C14.5931 29.9183 13.0922 29.2957 11.9851 28.1886C10.8781 27.0816 10.2555 25.5806 10.2539 24.0151V16.167C10.2531 14.5999 10.8747 13.0966 11.982 11.9876C13.0892 10.8787 14.5916 10.2548 16.1587 10.2532H24.0068C25.5723 10.2548 27.0733 10.8774 28.1803 11.9844C29.2873 13.0915 29.91 14.5925 29.9116 16.158V24.0061C29.9124 25.5732 29.2908 27.0765 28.1835 28.1854C27.0762 29.2944 25.5739 29.9183 24.0068 29.9199ZM16.1587 12.1124C15.0833 12.1132 14.0521 12.5405 13.2914 13.3006C12.5307 14.0608 12.1026 15.0916 12.101 16.167V24.0151C12.1026 25.0905 12.5307 26.1213 13.2914 26.8815C14.0521 27.6416 15.0833 28.0689 16.1587 28.0697H24.0068C25.0819 28.0689 26.1127 27.6415 26.873 26.8813C27.6332 26.121 28.0606 25.0902 28.0614 24.0151V16.167C28.0606 15.0919 27.6332 14.061 26.873 13.3008C26.1127 12.5406 25.0819 12.1132 24.0068 12.1124H16.1587Z" fill="white"/>
<defs>
<linearGradient id="paint0_linear_3017_2374" x1="36.2162" y1="-2.52252" x2="3.6036" y2="42.8829" gradientUnits="userSpaceOnUse">
<stop stop-color="#FFE185"/>
<stop offset="0.21" stop-color="#FFBB36"/>
<stop offset="0.38" stop-color="#FF5176"/>
<stop offset="0.52" stop-color="#F63395"/>
<stop offset="0.74" stop-color="#A436D2"/>
<stop offset="1" stop-color="#5F4EED"/>
</linearGradient>
</defs>
</svg>
