<svg width="40" height="40" viewBox="0 0 40 40" fill="none" xmlns="http://www.w3.org/2000/svg">
<circle cx="20" cy="20" r="20" fill="url(#paint0_linear_5909_3290)"/>
<path d="M11.3089 17.1992H15.1951V29.6731H11.3089V17.1992ZM13.252 11C13.6967 11.0007 14.1312 11.1333 14.5005 11.3809C14.8699 11.6286 15.1575 11.9802 15.327 12.3913C15.4965 12.8024 15.5403 13.2545 15.4529 13.6905C15.3654 14.1265 15.1506 14.5268 14.8357 14.8408C14.5207 15.1547 14.1198 15.3682 13.6835 15.4543C13.2472 15.5403 12.7952 15.4951 12.3847 15.3242C11.9741 15.1534 11.6234 14.8647 11.3769 14.4945C11.1305 14.1244 10.9993 13.6895 11 13.2448C11 12.9494 11.0583 12.6569 11.1716 12.3841C11.2848 12.1113 11.4508 11.8635 11.66 11.6549C11.8692 11.4464 12.1175 11.2812 12.3907 11.1688C12.6639 11.0564 12.9566 10.9991 13.252 11Z" fill="white"/>
<path d="M17.627 17.199H21.3443V18.905H21.3982C21.7726 18.267 22.3139 17.7432 22.9639 17.3901C23.6138 17.0369 24.3479 16.8678 25.0869 16.9009C29.0126 16.9009 29.7345 19.4833 29.7345 22.8415V29.6657H25.8447V23.6065C25.8447 22.1699 25.816 20.2986 23.8298 20.2986C21.8436 20.2986 21.5024 21.8753 21.5024 23.5024V29.6729H17.627V17.199Z" fill="white"/>
<defs>
<linearGradient id="paint0_linear_5909_3290" x1="36.9294" y1="3.07527" x2="3.06203" y2="36.9269" gradientUnits="userSpaceOnUse">
<stop stop-color="#007BB8"/>
<stop offset="1" stop-color="#0044E9"/>
</linearGradient>
</defs>
</svg>
