<svg width="40" height="40" viewBox="0 0 40 40" fill="none" xmlns="http://www.w3.org/2000/svg">
<circle cx="20" cy="20" r="20" fill="url(#paint0_linear_5909_3295)"/>
<path fill-rule="evenodd" clip-rule="evenodd" d="M18.3633 23.9674C18.3404 24.0402 18.3213 24.1055 18.3061 24.1668C17.3568 27.9063 17.2501 28.7386 16.2779 30.4722C15.813 31.2964 15.2881 32.0848 14.7073 32.8309C14.6425 32.9153 14.5815 33.0226 14.4519 32.9958C14.3223 32.969 14.2994 32.8386 14.2803 32.7235C14.116 31.5897 14.0484 30.4439 14.0783 29.2985C14.1278 27.8066 14.3108 27.2926 16.2246 19.1923C16.244 19.0778 16.2281 18.96 16.1788 18.8548C15.7038 17.6465 15.6513 16.3116 16.0301 15.0693C16.8993 12.304 20.0102 12.0931 20.5553 14.3751C20.8908 15.7827 20.0064 17.6275 19.324 20.3545C18.7597 22.6058 21.394 24.1898 23.6433 22.5636C25.7172 21.0295 26.5254 17.4166 26.3691 14.8469C26.0679 9.71517 20.4791 8.60675 16.9299 10.2445C12.8622 12.1353 11.9396 17.2056 13.7733 19.526C14.0058 19.8213 14.185 19.9978 14.1088 20.2931C13.9906 20.7572 13.8877 21.2251 13.758 21.6892C13.7418 21.7652 13.708 21.8363 13.6594 21.8967C13.6107 21.9572 13.5486 22.0052 13.478 22.0369C13.4075 22.0687 13.3305 22.0833 13.2533 22.0795C13.1761 22.0757 13.1008 22.0537 13.0337 22.0152C12.3664 21.7433 11.7805 21.3019 11.3334 20.7342C9.7742 18.7935 9.32815 14.9505 11.3906 11.6981C13.678 8.09283 17.9249 6.6354 21.8058 7.07647C26.4377 7.60575 29.3655 10.7929 29.9145 14.4058C30.1661 16.0512 29.9831 20.109 27.6881 22.9778C25.0462 26.2763 20.7612 26.4949 18.7864 24.4698C18.6339 24.3356 18.512 24.1515 18.3633 23.9674Z" fill="white"/>
<defs>
<linearGradient id="paint0_linear_5909_3295" x1="36.9261" y1="3.07417" x2="3.07086" y2="36.9228" gradientUnits="userSpaceOnUse">
<stop stop-color="#FF4C3C"/>
<stop offset="0.96" stop-color="#EF053E"/>
<stop offset="1" stop-color="#EE023E"/>
</linearGradient>
</defs>
</svg>
