<svg width="40" height="40" viewBox="0 0 40 40" fill="none" xmlns="http://www.w3.org/2000/svg">
<path d="M20 40C31.0457 40 40 31.0457 40 20C40 8.95431 31.0457 0 20 0C8.95431 0 0 8.95431 0 20C0 31.0457 8.95431 40 20 40Z" fill="#FF4500"/>
<path d="M33.34 19.9999C33.2804 18.3892 31.9281 17.1314 30.3124 17.1861C29.5965 17.211 28.9155 17.5043 28.3984 17.9965C26.1215 16.4454 23.4469 15.5953 20.6977 15.5356L21.9953 9.29648L26.2756 10.1963C26.395 11.295 27.3793 12.0904 28.478 11.9711C29.5767 11.8518 30.3721 10.8674 30.2528 9.76877C30.1335 8.67008 29.1491 7.87466 28.0504 7.99397C27.4191 8.0586 26.8523 8.42648 26.5391 8.97334L21.6373 7.99397C21.3042 7.9194 20.9711 8.1282 20.8966 8.46626C20.8966 8.47123 20.8966 8.47123 20.8966 8.4762L19.4201 15.4163C16.6361 15.461 13.9266 16.3161 11.6199 17.8771C10.4467 16.7735 8.59729 16.8282 7.49364 18.0064C6.38998 19.1797 6.44467 21.029 7.6229 22.1327C7.85158 22.3464 8.11506 22.5304 8.40838 22.6596C8.38849 22.953 8.38849 23.2463 8.40838 23.5396C8.40838 28.0188 13.6284 31.6629 20.0663 31.6629C26.5043 31.6629 31.7243 28.0238 31.7243 23.5396C31.7442 23.2463 31.7442 22.953 31.7243 22.6596C32.7285 22.1575 33.3599 21.1235 33.34 19.9999ZM13.34 22.0034C13.34 20.8998 14.2398 19.9999 15.3435 19.9999C16.4472 19.9999 17.347 20.8998 17.347 22.0034C17.347 23.1071 16.4472 24.0069 15.3435 24.0069C14.2349 23.997 13.34 23.1071 13.34 22.0034ZM24.9582 27.5018C23.5364 28.5707 21.7964 29.1175 20.0166 29.0429C18.2369 29.1175 16.4969 28.5707 15.075 27.5018C14.8861 27.2731 14.9209 26.9301 15.1496 26.7412C15.3485 26.5771 15.6318 26.5771 15.8357 26.7412C17.0388 27.6211 18.5053 28.0685 19.9967 27.9989C21.4882 28.0785 22.9597 27.6509 24.1777 26.7809C24.3964 26.5672 24.7544 26.5721 24.9682 26.7909C25.1819 27.0096 25.177 27.3676 24.9582 27.5813V27.5018ZM24.6003 24.0765C23.4966 24.0765 22.5968 23.1767 22.5968 22.073C22.5968 20.9694 23.4966 20.0695 24.6003 20.0695C25.7039 20.0695 26.6038 20.9694 26.6038 22.073C26.6485 23.1767 25.7884 24.1063 24.6848 24.1511C24.65 24.1511 24.6202 24.1511 24.5854 24.1511L24.6003 24.0765Z" fill="white"/>
</svg>
