<svg width="40" height="40" viewBox="0 0 40 40" fill="none" xmlns="http://www.w3.org/2000/svg">
<circle cx="20" cy="20" r="20" fill="url(#paint0_linear_5909_3296)"/>
<path d="M28.785 27.2138C28.6421 27.4869 28.3826 27.7027 28.0634 27.8139C27.7442 27.925 27.3912 27.9225 27.0821 27.8069C23.5434 26.4741 19.6387 26.6362 16.9854 26.9921C15.262 27.2188 13.5658 27.6053 11.9259 28.145C11.6083 28.2593 11.2555 28.2602 10.945 28.1475C10.6346 28.0348 10.3921 27.8177 10.2707 27.544C10.1493 27.2703 10.1591 26.9624 10.2978 26.6881C10.4366 26.4137 10.693 26.1953 11.0106 26.081C12.8216 25.4829 14.6948 25.0535 16.5983 24.8001C18.4171 24.5406 20.257 24.4544 22.0851 24.5431C24.1861 24.6407 26.2414 25.0517 28.1622 25.7584C28.467 25.8751 28.7033 26.0931 28.8198 26.3655C28.9364 26.6379 28.9239 26.9426 28.785 27.2138Z" fill="white"/>
<path d="M31.1554 22.4448C31.0701 22.6235 30.9482 22.7851 30.7969 22.9204C30.6456 23.0557 30.4677 23.162 30.2734 23.2332C30.0792 23.3044 29.8725 23.3391 29.6651 23.3354C29.4576 23.3316 29.2536 23.2894 29.0647 23.2113C24.6896 21.4062 19.8806 21.5687 16.6279 22.0208C14.5064 22.306 12.4201 22.8019 10.4043 23.5002C10.0137 23.6483 9.57866 23.6457 9.19477 23.4927C8.81089 23.3397 8.50964 23.049 8.35728 22.6844C8.20492 22.3199 8.21394 21.9114 8.38236 21.5489C8.55078 21.1863 8.8648 20.8994 9.25534 20.7512C11.4731 19.9721 13.7696 19.4156 16.106 19.091C18.3452 18.7649 20.6121 18.6694 22.8664 18.8061C25.4573 18.9612 27.9946 19.5317 30.3683 20.4929C30.5575 20.5705 30.728 20.6826 30.87 20.8228C31.012 20.9629 31.1227 21.1284 31.1959 21.3097C31.269 21.4911 31.303 21.6847 31.2961 21.8794C31.2892 22.0742 31.2413 22.2663 31.1554 22.4448Z" fill="white"/>
<path d="M32.0085 17.3392C31.6792 17.3748 31.3464 17.3239 31.0439 17.1918C20.956 12.7647 8.99784 17.3779 8.87637 17.4254C8.41429 17.6076 7.89838 17.6013 7.44211 17.4079C6.98583 17.2145 6.62658 16.8498 6.44338 16.3941C6.26019 15.9384 6.26807 15.429 6.46527 14.978C6.66247 14.527 7.03284 14.1712 7.49491 13.9891C10.126 13.0224 12.8547 12.34 15.6331 11.9538C18.2907 11.5601 20.9832 11.4561 23.6621 11.6436C26.74 11.8495 29.7578 12.5752 32.5843 13.7891C32.9606 13.9539 33.271 14.2368 33.4674 14.594C33.6638 14.9511 33.7353 15.3626 33.6708 15.7646C33.6063 16.1666 33.4094 16.5369 33.1105 16.8179C32.8117 17.099 32.4277 17.2751 32.0179 17.3192L32.0085 17.3392Z" fill="white"/>
<defs>
<linearGradient id="paint0_linear_5909_3296" x1="20.002" y1="0.00250461" x2="20.002" y2="40.0161" gradientUnits="userSpaceOnUse">
<stop stop-color="#00D954"/>
<stop offset="1" stop-color="#00924A"/>
</linearGradient>
</defs>
</svg>
