<svg width="40" height="40" viewBox="0 0 40 40" fill="none" xmlns="http://www.w3.org/2000/svg">
<circle cx="20" cy="20" r="20" fill="white"/>
<g style="mix-blend-mode:multiply">
<path d="M19.0809 17.7324C17.6633 17.5317 16.2182 17.7693 14.9394 18.4132C13.6606 19.0571 12.6092 20.0767 11.9263 21.3351C11.2434 22.5935 10.9615 24.0306 11.1185 25.4537C11.2755 26.8769 11.8639 28.218 12.8048 29.2973C13.7456 30.3765 14.9939 31.1423 16.3823 31.492C17.7708 31.8416 19.2329 31.7584 20.5727 31.2535C21.9125 30.7486 23.0659 29.8461 23.8782 28.6671C24.6906 27.4881 25.123 26.0889 25.1176 24.6571V16.9763C26.6573 18.0778 28.505 18.6657 30.3981 18.6565V14.8761C28.9976 14.8761 27.6545 14.3198 26.6642 13.3295C25.6739 12.3392 25.1176 10.9961 25.1176 9.59558H21.3012V24.6931C21.2998 25.3707 21.0841 26.0305 20.6849 26.578C20.2857 27.1255 19.7235 27.5327 19.0788 27.7412C18.4341 27.9497 17.7399 27.9489 17.0957 27.7388C16.4515 27.5288 15.8902 27.1203 15.4923 26.5718C15.0944 26.0234 14.8803 25.3631 14.8805 24.6855C14.8808 24.0079 15.0954 23.3478 15.4937 22.7996C15.892 22.2514 16.4535 21.8433 17.0979 21.6337C17.7422 21.4242 18.4364 21.4238 19.0809 21.6328V17.7324Z" fill="#FF004F"/>
</g>
<g style="mix-blend-mode:multiply">
<path d="M18.0009 16.8324C16.5832 16.6317 15.1381 16.8693 13.8593 17.5132C12.5805 18.1571 11.5292 19.1766 10.8462 20.435C10.1633 21.6934 9.88143 23.1306 10.0384 24.5537C10.1955 25.9769 10.7838 27.318 11.7247 28.3972C12.6655 29.4765 13.9138 30.2423 15.3023 30.5919C16.6907 30.9416 18.1528 30.8584 19.4926 30.3535C20.8324 29.8486 21.9858 28.9461 22.7982 27.7671C23.6105 26.5881 24.0429 25.1889 24.0375 23.7571V16.0763C25.5772 17.1777 27.425 17.7657 29.318 17.7565V13.9761C27.9175 13.9761 26.5744 13.4198 25.5841 12.4295C24.5938 11.4392 24.0375 10.096 24.0375 8.69556H20.2211V23.7931C20.2197 24.4707 20.004 25.1305 19.6048 25.678C19.2056 26.2255 18.6434 26.6327 17.9987 26.8412C17.354 27.0497 16.6598 27.0489 16.0156 26.8388C15.3714 26.6288 14.8102 26.2203 14.4123 25.6718C14.0144 25.1234 13.8002 24.4631 13.8004 23.7855C13.8007 23.1079 14.0153 22.4477 14.4136 21.8996C14.8119 21.3514 15.3734 20.9433 16.0178 20.7337C16.6622 20.5241 17.3563 20.5238 18.0009 20.7328V16.8324Z" fill="#00F2EA"/>
</g>
</svg>
