<svg width="40" height="40" viewBox="0 0 40 40" fill="none" xmlns="http://www.w3.org/2000/svg">
<path d="M40 20C40 31.05 31.05 40 20 40C8.95 40 0 31.05 0 20C0 8.95 8.95 0 20 0C31.05 0 40 8.95 40 20Z" fill="url(#paint0_linear_3017_1850)"/>
<path d="M30.8339 12.9865C30.1235 13.2897 29.3777 13.5016 28.6141 13.6172C28.9744 13.5595 29.4933 12.9145 29.6951 12.6514C30.0185 12.2531 30.2631 11.797 30.4159 11.3073C30.4339 11.2712 30.4483 11.2208 30.4159 11.1919C30.3973 11.183 30.377 11.1784 30.3564 11.1784C30.3358 11.1784 30.3155 11.183 30.2969 11.1919C29.4654 11.6355 28.5817 11.9732 27.6663 12.1973C27.635 12.208 27.6012 12.2092 27.5692 12.2009C27.5372 12.1926 27.5083 12.175 27.4861 12.1505C27.4148 12.0672 27.3377 11.9889 27.2555 11.9163C26.8757 11.5878 26.4448 11.3237 25.9798 11.1343C25.3609 10.8834 24.6931 10.7762 24.0267 10.8208C23.3787 10.8656 22.747 11.0435 22.1708 11.3433C21.5955 11.6461 21.0869 12.0616 20.6753 12.5649C20.2498 13.0933 19.9448 13.7082 19.7816 14.3667C19.6435 14.9871 19.6276 15.6285 19.7348 16.255C19.7348 16.3595 19.7348 16.3739 19.6447 16.3595C16.0411 15.8226 13.0357 14.5289 10.6068 11.7577C10.5023 11.6388 10.4447 11.6388 10.3582 11.7577C9.27711 13.3541 9.81045 15.9127 11.1366 17.1631C11.3168 17.3289 11.4969 17.4982 11.6951 17.6532C11.0871 17.6065 10.4944 17.4399 9.951 17.1631C9.84289 17.0946 9.79243 17.1343 9.78162 17.2532C9.78442 17.4389 9.80738 17.6238 9.85009 17.8046C9.95714 18.618 10.2781 19.3884 10.7801 20.0373C11.2821 20.6862 11.9473 21.1903 12.7077 21.4982C12.8926 21.5787 13.0861 21.6379 13.2843 21.6748C12.7222 21.7898 12.1445 21.8081 11.5762 21.7289C11.4501 21.7037 11.4032 21.7685 11.4501 21.8874C12.2032 23.9379 13.8285 24.5505 15.0537 24.8964C15.2159 24.9253 15.378 24.9253 15.5402 24.9649C15.5402 24.9649 15.5222 24.9649 15.5114 24.9937C15.1078 25.61 13.7096 26.0748 13.0573 26.2946C11.864 26.7196 10.593 26.8819 9.33117 26.7703C9.12937 26.7415 9.08612 26.7451 9.03206 26.7703C8.97801 26.7955 9.03208 26.8532 9.08973 26.9037C9.34559 27.073 9.60504 27.2208 9.8681 27.3649C10.6596 27.7867 11.4945 28.1214 12.3582 28.3631C16.8375 29.5991 21.8825 28.691 25.2447 25.3505C27.8861 22.7271 28.8123 19.1054 28.8123 15.4838C28.8123 15.3433 28.978 15.264 29.0789 15.1883C29.7487 14.6694 30.3387 14.055 30.8303 13.3649C30.9107 13.2623 30.9528 13.1349 30.9492 13.0045V12.9865C30.924 12.9289 30.9204 12.9469 30.8339 12.9865Z" fill="white"/>
<defs>
<linearGradient id="paint0_linear_3017_1850" x1="30.991" y1="3.42342" x2="7.92793" y2="35.1351" gradientUnits="userSpaceOnUse">
<stop stop-color="#00CCFF"/>
<stop offset="1" stop-color="#0080FF"/>
</linearGradient>
</defs>
</svg>
