<svg width="40" height="40" viewBox="0 0 40 40" fill="none" xmlns="http://www.w3.org/2000/svg">
<path d="M20 40C8.93491 40 0 31.0651 0 20C0 8.93491 8.93491 0 20 0C31.0651 0 40 8.93491 40 20C40 31.0651 31.0651 40 20 40Z" fill="url(#paint0_linear_6123_2177)"/>
<path d="M20.7113 15.3846C20.6521 15.3846 20.5338 15.3846 20.4746 15.3846L20.7113 16.1539C21.8947 16.1539 22.8415 17.1006 22.8415 18.2841L23.6107 18.5207C23.6107 18.4616 23.6107 18.4024 23.6107 18.3432C23.6699 16.6864 22.3681 15.3846 20.7113 15.3846Z" fill="white"/>
<path d="M20.712 13.6687C20.4753 13.6687 20.2386 13.6687 20.002 13.7279L20.2386 14.4971C20.4162 14.4971 20.5345 14.4379 20.712 14.4379C22.8422 14.4379 24.5582 16.1539 24.5582 18.2841C24.5582 18.4616 24.5582 18.5799 24.5582 18.7574L25.3274 18.9941C25.3866 18.7575 25.3866 18.5208 25.3866 18.2841C25.3866 15.7397 23.3156 13.6687 20.712 13.6687Z" fill="white"/>
<path d="M25.1492 13.787C23.8475 12.4852 22.0723 11.7751 20.238 11.7751C20.0013 11.7751 19.7054 11.7751 19.4688 11.8343L19.7054 12.6035C19.8829 12.6035 20.0605 12.6035 20.238 12.6035C23.6108 12.6035 26.3918 15.3846 26.3918 18.7574C26.3918 18.9941 26.3918 19.2307 26.3327 19.4083L27.1019 19.645C27.1611 19.3491 27.1611 19.0532 27.1611 18.7574C27.1611 16.8047 26.451 15.0887 25.1492 13.787Z" fill="white"/>
<path d="M32.4857 12.8994C32.0124 11.7159 31.2431 10.6509 30.3556 9.76328C29.468 8.8757 28.4029 8.16566 27.2195 7.63312C26.5094 7.33726 25.7402 7.10055 24.9709 6.98221H24.9118C24.3792 6.92303 23.9059 6.86389 23.3733 6.86389H16.6277C15.326 6.86389 14.0242 7.10057 12.7816 7.63312C11.5982 8.10649 10.5331 8.8757 9.6455 9.76328C8.75793 10.6509 8.04786 11.7159 7.51532 12.8994C6.98277 14.142 6.74609 15.4437 6.74609 16.7455V21.3017C6.74609 23.3136 7.33781 25.2662 8.52124 26.923C9.40882 28.2248 10.6514 29.2899 12.0124 30.0591C12.3082 30.2367 12.6041 30.355 12.8999 30.4733C12.9591 30.4733 13.0183 30.5325 13.0774 30.5325L13.0183 33.787C13.0183 34.2604 13.3141 34.6745 13.6692 34.8521C13.7875 34.8521 13.9058 34.9112 13.965 34.9112C14.32 34.9112 14.6159 34.7929 14.8526 34.497L17.8704 31.1243H23.255C24.5567 31.1243 25.8585 30.8875 27.1011 30.355C28.2846 29.8816 29.3496 29.1124 30.2372 28.2248C31.1248 27.3373 31.8349 26.2722 32.3674 25.0887C32.8999 23.8461 33.1366 22.5444 33.1366 21.2426V16.6864C33.255 15.4438 33.0183 14.142 32.4857 12.8994ZM14.0834 33.9053C13.965 33.9053 13.9059 33.8461 13.9059 33.7278L13.965 30.8284L14.0242 28.7574C13.965 28.7574 13.9059 28.6982 13.7875 28.6982C13.5508 28.5799 13.3141 28.4615 13.0183 28.3432C13.0183 28.3432 12.9591 28.3432 12.9591 28.284C10.4739 26.9822 8.75793 24.3195 8.75793 21.3609V16.8639C8.75793 12.5443 12.3082 8.99406 16.6277 8.99406H23.3733C23.7875 8.99406 24.2017 9.05323 24.6159 9.11241C28.3437 9.70412 31.2431 12.9585 31.2431 16.8639V21.3609C31.2431 25.6805 27.6928 29.2308 23.3733 29.2308H18.4029L16.5686 31.2426L14.1425 33.9053L14.0834 33.9645C14.0834 33.9053 14.0834 33.9053 14.0834 33.9053Z" fill="white"/>
<path d="M23.2544 21.4793C22.4852 21.4201 21.9526 21.9526 21.5976 22.6627C21.3018 22.6627 17.0414 22.426 16.4497 17.5739C17.1597 17.2781 17.7514 16.7455 17.6923 15.9763C17.6331 15.1479 16.3313 12.6035 15.0296 12.6035C13.787 12.6035 12.6035 13.9645 12.6035 15.0887C12.6035 15.1479 12.6035 15.2663 12.6035 15.3254C12.6627 15.6213 13.6686 22.426 23.0769 26.3313C23.1952 26.3905 23.4911 26.4497 23.6686 26.5088C23.7278 26.5088 23.7278 26.5088 23.7869 26.5088C23.8461 26.5088 23.9645 26.568 24.0236 26.568C24.6745 26.568 25.4438 26.213 25.9763 25.6213C26.3313 25.2071 26.568 24.7337 26.6272 24.2012C26.568 22.9586 24.0828 21.5384 23.2544 21.4793Z" fill="white"/>
<defs>
<linearGradient id="paint0_linear_6123_2177" x1="5.88521" y1="5.91184" x2="34.1473" y2="34.1739" gradientUnits="userSpaceOnUse">
<stop offset="1e-07" stop-color="#9D5EFB"/>
<stop offset="0.1987" stop-color="#965AF2"/>
<stop offset="0.529" stop-color="#844ED8"/>
<stop offset="0.9479" stop-color="#673AAF"/>
<stop offset="0.9944" stop-color="#6338AA"/>
</linearGradient>
</defs>
</svg>
