<svg width="40" height="40" viewBox="0 0 40 40" fill="none" xmlns="http://www.w3.org/2000/svg">
<path d="M20 40C31.0457 40 40 31.0457 40 20C40 8.9543 31.0457 0 20 0C8.9543 0 0 8.9543 0 20C0 31.0457 8.9543 40 20 40Z" fill="white"/>
<path d="M31.8349 15.0295C31.8349 15.6212 31.7166 16.2129 31.5391 16.7455C31.3615 17.5147 31.0065 18.1656 30.7107 18.8757C30.4148 19.5266 30.0598 20.1775 29.7047 20.7692C29.2314 21.5976 28.6988 22.3668 28.1663 23.136C26.9829 24.7337 25.7403 26.2721 24.3201 27.6331C23.6101 28.3431 22.9 28.994 22.0716 29.5266C21.3615 30.0591 20.5923 30.5325 19.7047 30.7692C19.1722 30.9467 18.6397 30.9467 18.1071 30.7692C17.5746 30.5325 17.1604 30.1774 16.8645 29.7632C16.4503 29.2307 16.0953 28.639 15.8586 28.0473C15.6219 27.4555 15.3852 26.8638 15.2077 26.2721C14.971 25.6212 14.7935 24.9703 14.616 24.3195C14.5568 24.0236 14.4385 23.7277 14.3793 23.4319C14.3201 23.0769 14.2018 22.7218 14.0834 22.3076C13.9059 21.6567 13.7284 20.9467 13.5509 20.2958C13.4326 19.7041 13.255 19.1124 13.0184 18.5798C12.7817 17.8698 12.545 17.2189 12.0716 16.6272C11.8349 16.3905 11.5982 16.1538 11.2432 16.1538C11.0065 16.1538 10.829 16.2721 10.6515 16.3905C10.2965 16.6271 9.88227 16.8638 9.52724 17.1005C9.4089 17.1597 9.34973 17.1597 9.23138 17.0413C8.93552 16.6271 8.63967 16.2721 8.34381 15.8579C8.22547 15.7396 8.28462 15.6212 8.40297 15.5621C8.81717 15.1479 9.29055 14.7336 9.70475 14.3194C10.5332 13.6094 11.3615 12.8402 12.2491 12.1893C13.0184 11.6567 13.7876 11.1242 14.616 10.7692C15.0894 10.5325 15.6219 10.4733 16.1544 10.5916C16.687 10.71 17.1012 11.065 17.3971 11.4792C17.8704 12.1893 18.1663 12.9585 18.403 13.7277C18.5213 14.2603 18.6397 14.7928 18.758 15.3254C18.9355 16.1538 19.0539 17.0413 19.2314 17.9289C19.3497 18.6981 19.4681 19.4674 19.5864 20.2366C19.7639 21.065 19.8823 21.9526 20.2965 22.7218C20.474 23.0769 20.7107 23.3727 21.184 23.3727C21.3615 23.3727 21.4799 23.3135 21.5982 23.2544C22.1308 22.8993 22.545 22.426 22.9592 21.8934C23.255 21.4792 23.5509 21.065 23.8468 20.5916C24.1426 20.0591 24.4385 19.5857 24.616 19.0532C24.7343 18.6981 24.9118 18.3431 24.971 17.9881C25.0894 17.3964 25.2077 16.8047 25.0302 16.2129C24.8527 15.7396 24.5568 15.4437 24.0834 15.3254C23.4325 15.1479 22.8408 15.207 22.19 15.4437C22.1308 15.5029 22.0124 15.5029 21.9533 15.4437C21.8941 15.3846 21.9533 15.2662 21.9533 15.207C22.2491 14.4378 22.545 13.6686 23.0184 12.9585C23.4326 12.3668 23.9059 11.7751 24.4385 11.3017C24.7935 11.0059 25.2077 10.7692 25.6219 10.5916C26.6278 10.1183 27.6929 9.99993 28.8172 10.0591C29.6456 10.1183 30.3556 10.4733 30.829 11.1834C31.2432 11.7751 31.4799 12.426 31.5982 13.1952C31.7758 13.9644 31.8349 14.497 31.8349 15.0295Z" fill="#00AFF3"/>
</svg>
