<svg width="40" height="40" viewBox="0 0 40 40" fill="none" xmlns="http://www.w3.org/2000/svg">
<path d="M12.8027 11.7968H18.8316V2.53906C16.3149 3.36547 14.0516 6.89813 12.8027 11.7968Z" fill="#75B3FF"/>
<path d="M12.8027 28.2031C14.0516 33.1018 16.3149 36.6345 18.8316 37.4609V28.2031H12.8027Z" fill="#75B3FF"/>
<path d="M38.8281 14.1406H1.17188C0.524687 14.1406 0 14.6652 0 15.3125V24.6875C0 25.3347 0.524687 25.8594 1.17188 25.8594H38.8281C39.4753 25.8594 40 25.3347 40 24.6875V15.3125C40 14.6652 39.4753 14.1406 38.8281 14.1406ZM37.4545 18.1804L35.1108 22.8679C34.9116 23.265 34.5066 23.5156 34.0625 23.5156C33.6184 23.5156 33.2134 23.265 33.0142 22.8679L31.7188 20.277L30.4233 22.8679C30.025 23.6621 28.725 23.6621 28.3267 22.8679L26.0814 18.3761C25.9463 18.2103 25.8694 18.002 25.8444 17.7797C25.8299 17.9152 25.8003 18.0513 25.7358 18.1804L23.392 22.8679C23.1929 23.265 22.7878 23.5156 22.3438 23.5156C21.8997 23.5156 21.4946 23.265 21.2955 22.8679L20 20.277L18.7045 22.8679C18.3062 23.6621 17.0063 23.6621 16.608 22.8679L14.2642 18.1804C14.2021 18.0562 14.1754 17.9252 14.1598 17.7948C14.1303 18.0473 14.035 18.2775 13.8808 18.4527L11.6732 22.8679C11.4741 23.265 11.0691 23.5156 10.625 23.5156C10.1809 23.5156 9.77586 23.265 9.57672 22.8679L8.28125 20.277L6.98578 22.8679C6.78664 23.265 6.38156 23.5156 5.9375 23.5156C5.49344 23.5156 5.08836 23.265 4.88922 22.8679L2.54547 18.1804C2.25594 17.6013 2.49055 16.8975 3.06961 16.608C3.6475 16.3219 4.35023 16.5519 4.64203 17.1321L5.9375 19.723L7.23297 17.1321C7.64758 16.3002 8.89609 16.2652 9.32953 17.1321L10.625 19.723L11.9205 17.1321C12.131 16.7109 12.5739 16.4821 13.0443 16.4866C13.65 16.5264 14.1315 17.0259 14.157 17.6202C14.1709 17.2045 14.3902 16.807 14.7884 16.6079C15.3686 16.3218 16.0701 16.5518 16.3608 17.132L17.6562 19.723L18.9517 17.1321C19.35 16.3379 20.65 16.3379 21.0483 17.1321L22.3438 19.723L23.6392 17.1321C23.9288 16.5519 24.6326 16.3219 25.2116 16.608C25.6065 16.8054 25.8241 17.1977 25.8416 17.6095C25.8644 17.0208 26.283 16.5307 26.8847 16.4912C27.3677 16.4798 27.8689 16.711 28.0795 17.1321L29.375 19.723L30.6705 17.1321C31.0688 16.3379 32.3688 16.3379 32.767 17.1321L34.0625 19.723L35.358 17.1321C35.6487 16.5519 36.3502 16.3219 36.9304 16.608C37.5095 16.8975 37.7441 17.6013 37.4545 18.1804Z" fill="#75B3FF"/>
<path d="M21.1719 28.2031V37.4609C23.6886 36.6345 25.952 33.1018 27.2008 28.2031H21.1719Z" fill="#75B3FF"/>
<path d="M21.1719 2.53906V11.7968H27.2008C25.952 6.89813 23.6886 3.36547 21.1719 2.53906Z" fill="#75B3FF"/>
<path d="M10.3906 28.2031H1.91602C5.11922 35.2361 12.2121 40 19.9985 40C15.7652 40 12.067 35.338 10.3906 28.2031Z" fill="#75B3FF"/>
<path d="M29.6079 28.2031C27.9315 35.338 24.2333 40 20 40C27.7864 40 34.8793 35.2361 38.0825 28.2031H29.6079Z" fill="#75B3FF"/>
<path d="M1.91602 11.7969H10.3906C12.067 4.66203 15.7652 0 19.9985 0C12.2121 0 5.11922 4.76391 1.91602 11.7969Z" fill="#75B3FF"/>
<path d="M20 0C24.2333 0 27.9315 4.66203 29.6079 11.7969H38.0825C34.8793 4.76391 27.7864 0 20 0Z" fill="#75B3FF"/>
</svg>
