<svg width="40" height="40" viewBox="0 0 40 40" fill="none" xmlns="http://www.w3.org/2000/svg">
<path d="M20 40C8.93491 40 0 31.0651 0 20C0 8.93491 8.93491 0 20 0C31.0651 0 40 8.93491 40 20C39.9408 31.0651 31.0059 40 20 40Z" fill="#00DC5B"/>
<path d="M15.6214 8.04736C9.64503 8.04736 4.79297 12.071 4.79297 17.1006C4.79297 19.9409 6.3906 22.4852 8.81663 24.142C8.93497 24.2012 8.99415 24.3787 8.93498 24.5562L8.34327 26.8047C8.28409 27.1006 8.57997 27.3373 8.87582 27.2189L11.5385 25.6213C11.5977 25.5621 11.7161 25.5621 11.8344 25.5621C13.0178 25.9172 14.2604 26.0947 15.6214 26.0947C21.5977 26.0947 26.4498 22.071 26.4498 17.0414C26.4498 12.0118 21.5977 8.04736 15.6214 8.04736ZM12.1303 15.6805C11.3019 15.6805 10.651 15.0296 10.651 14.2012C10.651 13.3728 11.3019 12.7219 12.1303 12.7219C12.9587 12.7219 13.6096 13.3728 13.6096 14.2012C13.6096 14.9704 12.9587 15.6805 12.1303 15.6805ZM19.3492 15.6805C18.5208 15.6805 17.8699 15.0296 17.8699 14.2012C17.8699 13.3728 18.5208 12.7219 19.3492 12.7219C20.1776 12.7219 20.8285 13.3728 20.8285 14.2012C20.8285 14.9704 20.1776 15.6805 19.3492 15.6805Z" fill="white"/>
<path d="M31.5983 32.6627C31.48 32.6627 31.3616 32.6036 31.2433 32.5444L29.1131 31.2426C28.048 31.5976 26.9829 31.716 25.7995 31.716C24.5569 31.716 23.3143 31.5385 22.1308 31.1243C21.0066 30.7101 20.0007 30.1775 19.1131 29.4675C18.2255 28.7574 17.5746 27.8698 17.1013 26.9231C16.6279 25.9172 16.332 24.9113 16.332 23.787C16.332 22.7219 16.5687 21.6568 17.1013 20.6509C17.5746 19.7042 18.2847 18.8758 19.1131 18.1065C20.0007 17.3965 21.0066 16.8047 22.1308 16.4497C23.3143 16.0355 24.4977 15.858 25.7995 15.858C27.0421 15.858 28.2847 16.0355 29.4681 16.4497C30.5924 16.8639 31.5983 17.3965 32.4859 18.1065C33.3734 18.8166 34.0244 19.7042 34.4977 20.6509C34.9711 21.6568 35.2669 22.6627 35.2669 23.787C35.2669 26.1539 34.0243 28.3432 31.8942 29.8817L32.3084 31.7752C32.3675 32.0119 32.3084 32.1894 32.19 32.3669C32.0717 32.5444 31.835 32.6627 31.5983 32.6627ZM28.8764 20.6509C28.403 20.6509 28.048 21.0059 28.048 21.4793C28.048 21.716 28.1072 21.8935 28.2847 22.071C28.4622 22.2485 28.6397 22.3077 28.8764 22.3077C29.3498 22.3077 29.7048 21.9527 29.7048 21.4793C29.7048 21.2426 29.6457 21.0651 29.4681 20.8876C29.2906 20.7692 29.0539 20.6509 28.8764 20.6509ZM22.8409 20.6509C22.3675 20.6509 22.0125 21.0059 22.0125 21.4793C22.0125 21.716 22.0717 21.8935 22.2492 22.071C22.4267 22.2485 22.6042 22.3077 22.8409 22.3077C23.3143 22.3077 23.6693 21.9527 23.6693 21.4793C23.6693 21.2426 23.6101 21.0651 23.4326 20.8876C23.2551 20.7692 23.0776 20.6509 22.8409 20.6509Z" fill="white"/>
<path d="M25.799 16.2722C30.8286 16.2722 34.8523 19.645 34.8523 23.8462C34.8523 26.1539 33.6097 28.2249 31.5978 29.645C31.4795 29.7042 31.4203 29.8817 31.4795 30L31.9529 31.8935C32.0121 32.1302 31.8345 32.3077 31.5978 32.3077C31.5387 32.3077 31.4795 32.3077 31.4203 32.2485L29.231 30.9468C29.1718 30.8876 29.1126 30.8876 29.0535 30.8876C28.9943 30.8876 28.9943 30.8876 28.9351 30.8876C27.9292 31.1835 26.8641 31.361 25.7399 31.361C20.7103 31.361 16.6866 27.9882 16.6866 23.787C16.6866 19.5858 20.8286 16.2722 25.799 16.2722ZM22.8405 22.6627C23.4913 22.6627 24.0239 22.1302 24.0239 21.4793C24.0239 20.8284 23.4913 20.2959 22.8405 20.2959C22.1896 20.2959 21.657 20.8284 21.657 21.4793C21.657 22.1302 22.1896 22.6627 22.8405 22.6627ZM28.876 22.6627C29.5269 22.6627 30.0594 22.1302 30.0594 21.4793C30.0594 20.8284 29.5269 20.2959 28.876 20.2959C28.2251 20.2959 27.6925 20.8284 27.6925 21.4793C27.6925 22.1302 28.2251 22.6627 28.876 22.6627ZM25.799 15.503C24.4973 15.503 23.1955 15.7396 22.012 16.1538C21.4203 16.3314 20.8878 16.6273 20.3552 16.9231C19.8227 17.219 19.3493 17.574 18.876 17.929C18.4026 18.284 18.0475 18.6983 17.6925 19.1716C17.3375 19.645 17.0416 20.1183 16.7458 20.5917C16.5091 21.1243 16.2724 21.6568 16.1541 22.1894C16.0357 22.7219 15.9766 23.3136 15.9766 23.9054C15.9766 24.4971 16.0357 25.0296 16.1541 25.6213C16.2724 26.1539 16.5091 26.6864 16.7458 27.2189C16.9825 27.6923 17.2783 28.1657 17.6925 28.6391C18.0475 29.0533 18.4617 29.4675 18.876 29.8817C19.3493 30.2367 19.8227 30.5917 20.3552 30.8876C20.8878 31.1835 21.4203 31.4201 22.012 31.6568C23.1955 32.071 24.4973 32.3077 25.799 32.3077C26.9233 32.3077 27.9884 32.1302 29.0535 31.8343L31.0653 33.077C31.2428 33.1953 31.4204 33.2545 31.657 33.2545C32.0121 33.2545 32.3079 33.0769 32.4854 32.8403C32.6629 32.6036 32.7813 32.2486 32.6629 31.8935L32.2488 30.2367C32.7221 29.8817 33.1363 29.5266 33.4913 29.1124C33.9055 28.6391 34.3198 28.1065 34.6156 27.574C34.9115 27.0415 35.1481 26.4497 35.3257 25.858C35.5032 25.2663 35.5624 24.6154 35.5624 23.9645C35.5624 23.3728 35.5032 22.8403 35.3848 22.2486C35.2665 21.716 35.0298 21.1835 34.7931 20.6509C34.5564 20.1775 34.2606 19.7042 33.8464 19.2308C33.4913 18.8166 33.0771 18.4024 32.6629 17.9882C32.1896 17.6332 31.7162 17.2781 31.1836 16.9823C30.6511 16.6864 30.1186 16.4497 29.5268 16.213C28.4026 15.7397 27.1008 15.503 25.799 15.503Z" fill="#00DC5B"/>
</svg>
