<svg width="40" height="40" viewBox="0 0 40 40" fill="none" xmlns="http://www.w3.org/2000/svg">
<circle cx="20" cy="20" r="20" fill="url(#paint0_linear_5909_3294)"/>
<path d="M8 32L9.71453 25.5954C8.33269 23.0993 7.89749 20.1884 8.48884 17.3972C9.0802 14.6061 10.6584 12.1218 12.9338 10.4005C15.2092 8.67911 18.0291 7.83618 20.8759 8.02639C23.7227 8.21659 26.4053 9.42717 28.4315 11.4359C30.4577 13.4447 31.6914 16.1168 31.9061 18.9619C32.1209 21.8069 31.3023 24.634 29.6007 26.9241C27.8991 29.2143 25.4285 30.8139 22.6425 31.4293C19.8565 32.0447 16.9421 31.6347 14.4341 30.2744L8 32ZM14.7548 27.8741L15.1604 28.1174C17.1783 29.3203 19.5664 29.7432 21.8746 29.3065C24.1828 28.8697 26.2514 27.6035 27.6902 25.7466C29.1291 23.8897 29.8388 21.5705 29.6854 19.2264C29.532 16.8823 28.5262 14.6753 26.8577 13.0217C25.1891 11.3681 22.9732 10.3822 20.6278 10.25C18.2824 10.1177 15.9697 10.8482 14.1258 12.3037C12.2819 13.7592 11.0344 15.8391 10.6184 18.1511C10.2025 20.4631 10.6469 22.8474 11.8678 24.8543L12.1186 25.2636L11.1599 28.8401L14.7548 27.8741Z" fill="white"/>
<path fill-rule="evenodd" clip-rule="evenodd" d="M24.4532 21.5286C23.9665 21.2373 23.347 20.9128 22.7608 21.1598C22.3183 21.3405 22.0234 22.0263 21.7542 22.3803C21.693 22.4627 21.6039 22.5201 21.5035 22.5418C21.4031 22.5635 21.2983 22.548 21.2085 22.4983C19.6009 21.8664 18.2527 20.7118 17.3812 19.2204C17.308 19.1259 17.2733 19.0071 17.2842 18.888C17.2952 18.7689 17.351 18.6584 17.4402 18.5788C17.7668 18.2699 18.007 17.8809 18.1371 17.4506C18.1601 16.9843 18.0529 16.5209 17.8274 16.1121C17.5951 15.6181 17.337 14.9064 16.8392 14.6373C16.5991 14.5251 16.3313 14.486 16.0692 14.5246C15.807 14.5633 15.5619 14.6781 15.3644 14.8548C15.0262 15.1463 14.7579 15.51 14.5792 15.919C14.4005 16.3281 14.316 16.7722 14.332 17.2183C14.3357 17.4667 14.3666 17.714 14.4242 17.9557C14.5885 18.5404 14.8369 19.098 15.1616 19.6112C15.3873 20.0037 15.6334 20.384 15.899 20.7506C16.7797 21.9584 17.8852 22.985 19.1548 23.774C19.7917 24.1712 20.4722 24.4941 21.1827 24.7364C21.9791 24.9982 22.687 25.2747 23.5462 25.1051C24.0057 25.0334 24.4409 24.8509 24.8141 24.5734C25.1874 24.2959 25.4874 23.9317 25.6884 23.5122C25.8004 23.2574 25.8338 22.975 25.7843 22.7011C25.6626 22.1332 24.9067 21.8014 24.4532 21.5286Z" fill="white"/>
<defs>
<linearGradient id="paint0_linear_5909_3294" x1="3.07775" y1="3.07417" x2="36.9294" y2="36.9258" gradientUnits="userSpaceOnUse">
<stop stop-color="#00FB73"/>
<stop offset="1" stop-color="#00B25B"/>
</linearGradient>
</defs>
</svg>
