<svg width="40" height="40" viewBox="0 0 40 40" fill="none" xmlns="http://www.w3.org/2000/svg">
<path d="M40 20C40 31.05 31.05 40 20 40C8.95 40 0 31.05 0 20C0 8.95 8.95 0 20 0C31.05 0 40 8.95 40 20Z" fill="url(#paint0_linear_3017_1867)"/>
<path d="M31.0206 17.0811C31.0206 16.4467 30.8956 15.8185 30.6527 15.2324C30.4098 14.6463 30.0538 14.1138 29.605 13.6654C29.1562 13.2169 28.6234 12.8613 28.0372 12.6189C27.4509 12.3764 26.8226 12.2518 26.1882 12.2523H13.8386C12.5579 12.2523 11.3297 12.7611 10.4241 13.6667C9.51852 14.5722 9.00977 15.8005 9.00977 17.0811V22.8289C9.00977 24.1105 9.5189 25.3397 10.4252 26.2459C11.3314 27.1522 12.5606 27.6613 13.8422 27.6613H26.1917C27.4734 27.6613 28.7025 27.1522 29.6088 26.2459C30.515 25.3397 31.0242 24.1105 31.0242 22.8289L31.0206 17.0811ZM23.7557 20.3857L18.217 23.128C18.0008 23.2433 17.262 23.0884 17.262 22.8397V17.2145C17.262 16.9658 18.0044 16.8073 18.2242 16.9334L23.5251 19.8163C23.7485 19.9424 23.9791 20.2631 23.7557 20.3857Z" fill="white"/>
<defs>
<linearGradient id="paint0_linear_3017_1867" x1="20" y1="0" x2="20" y2="40" gradientUnits="userSpaceOnUse">
<stop stop-color="#FF0000"/>
<stop offset="1" stop-color="#9B0000"/>
</linearGradient>
</defs>
</svg>
