<svg width="19" height="20" viewBox="0 0 19 20" fill="none" xmlns="http://www.w3.org/2000/svg">
<path d="M0 18.125C0 19.1602 0.879836 20 1.96429 20H16.369C17.4535 20 18.3333 19.1602 18.3333 18.125V7.5H0V18.125ZM13.0952 10.4688C13.0952 10.2109 13.3162 10 13.5863 10H15.2232C15.4933 10 15.7143 10.2109 15.7143 10.4688V12.0312C15.7143 12.2891 15.4933 12.5 15.2232 12.5H13.5863C13.3162 12.5 13.0952 12.2891 13.0952 12.0312V10.4688ZM13.0952 15.4688C13.0952 15.2109 13.3162 15 13.5863 15H15.2232C15.4933 15 15.7143 15.2109 15.7143 15.4688V17.0312C15.7143 17.2891 15.4933 17.5 15.2232 17.5H13.5863C13.3162 17.5 13.0952 17.2891 13.0952 17.0312V15.4688ZM7.85714 10.4688C7.85714 10.2109 8.07812 10 8.34822 10H9.98512C10.2552 10 10.4762 10.2109 10.4762 10.4688V12.0312C10.4762 12.2891 10.2552 12.5 9.98512 12.5H8.34822C8.07812 12.5 7.85714 12.2891 7.85714 12.0312V10.4688ZM7.85714 15.4688C7.85714 15.2109 8.07812 15 8.34822 15H9.98512C10.2552 15 10.4762 15.2109 10.4762 15.4688V17.0312C10.4762 17.2891 10.2552 17.5 9.98512 17.5H8.34822C8.07812 17.5 7.85714 17.2891 7.85714 17.0312V15.4688ZM2.61905 10.4688C2.61905 10.2109 2.84003 10 3.11012 10H4.74702C5.01711 10 5.2381 10.2109 5.2381 10.4688V12.0312C5.2381 12.2891 5.01711 12.5 4.74702 12.5H3.11012C2.84003 12.5 2.61905 12.2891 2.61905 12.0312V10.4688ZM2.61905 15.4688C2.61905 15.2109 2.84003 15 3.11012 15H4.74702C5.01711 15 5.2381 15.2109 5.2381 15.4688V17.0312C5.2381 17.2891 5.01711 17.5 4.74702 17.5H3.11012C2.84003 17.5 2.61905 17.2891 2.61905 17.0312V15.4688ZM16.369 2.5H14.4048V0.625C14.4048 0.28125 14.1101 0 13.75 0H12.4405C12.0804 0 11.7857 0.28125 11.7857 0.625V2.5H6.54762V0.625C6.54762 0.28125 6.25298 0 5.89286 0H4.58333C4.22321 0 3.92857 0.28125 3.92857 0.625V2.5H1.96429C0.879836 2.5 0 3.33984 0 4.375V6.25H18.3333V4.375C18.3333 3.33984 17.4535 2.5 16.369 2.5Z" fill="white"/>
</svg>
