<svg width="17" height="15" viewBox="0 0 17 15" fill="none" xmlns="http://www.w3.org/2000/svg">
<path fill-rule="evenodd" clip-rule="evenodd" d="M0.25 2C0.25 1.24062 0.865615 0.625 1.625 0.625H15.375C16.1344 0.625 16.75 1.24062 16.75 2C16.75 2.75939 16.1344 3.375 15.375 3.375H1.625C0.865615 3.375 0.25 2.75939 0.25 2ZM3 7.5C3 6.74059 3.61561 6.125 4.375 6.125H12.625C13.3844 6.125 14 6.74059 14 7.5C14 8.25941 13.3844 8.875 12.625 8.875H4.375C3.61561 8.875 3 8.25941 3 7.5ZM5.75 13C5.75 12.2406 6.36559 11.625 7.125 11.625H9.875C10.6344 11.625 11.25 12.2406 11.25 13C11.25 13.7594 10.6344 14.375 9.875 14.375H7.125C6.36559 14.375 5.75 13.7594 5.75 13Z" fill="white"/>
</svg>
