<svg width="19" height="20" viewBox="0 0 19 20" fill="none" xmlns="http://www.w3.org/2000/svg">
<path fill-rule="evenodd" clip-rule="evenodd" d="M14.3952 13.4761C16.852 10.3209 16.63 5.75612 13.7295 2.8556C10.5887 -0.285201 5.49642 -0.285201 2.35561 2.8556C-0.785204 5.99642 -0.785204 11.0887 2.35561 14.2295C5.25614 17.13 9.82096 17.3519 12.9762 14.8952C12.9897 14.9106 13.0039 14.9257 13.0186 14.9403L17.2838 19.2055C17.6764 19.5982 18.313 19.5982 18.7056 19.2055C19.0981 18.8129 19.0981 18.1764 18.7056 17.7838L14.4404 13.5186C14.4256 13.5039 14.4105 13.4898 14.3952 13.4761ZM12.2426 4.25737C14.5858 6.60051 14.5858 10.3995 12.2426 12.7427C9.8995 15.0858 6.1005 15.0858 3.75736 12.7427C1.41421 10.3995 1.41421 6.60051 3.75736 4.25737C6.1005 1.91421 9.8995 1.91421 12.2426 4.25737Z" fill="white"/>
</svg>
