<svg width="22" height="23" viewBox="0 0 22 23" fill="none" xmlns="http://www.w3.org/2000/svg">
<path d="M11 11.5C11 10.8096 11.5596 10.25 12.25 10.25H19.75C20.4404 10.25 21 10.8096 21 11.5V20.25C21 20.9404 20.4404 21.5 19.75 21.5H12.25C11.5596 21.5 11 20.9404 11 20.25V11.5Z" stroke="white" stroke-width="2" stroke-linecap="round"/>
<path d="M1 2.75C1 2.05964 1.55964 1.5 2.25 1.5H6C6.69036 1.5 7.25 2.05964 7.25 2.75V20.25C7.25 20.9404 6.69036 21.5 6 21.5H2.25C1.55964 21.5 1 20.9404 1 20.25V2.75Z" stroke="white" stroke-width="2" stroke-linecap="round"/>
<path d="M11 2.75C11 2.05964 11.5596 1.5 12.25 1.5H19.75C20.4404 1.5 21 2.05964 21 2.75V5.25C21 5.94036 20.4404 6.5 19.75 6.5H12.25C11.5596 6.5 11 5.94036 11 5.25V2.75Z" stroke="white" stroke-width="2" stroke-linecap="round"/>
</svg>
