<svg width="28" height="28" viewBox="0 0 28 28" fill="none" xmlns="http://www.w3.org/2000/svg">
<g filter="url(#filter0_d_3551_2987)">
<circle cx="13" cy="13" r="8" fill="#FF0000"/>
</g>
<g filter="url(#filter1_d_3551_2987)">
<path fill-rule="evenodd" clip-rule="evenodd" d="M23 13C23 18.5228 18.5228 23 13 23C7.47715 23 3 18.5228 3 13C3 7.47715 7.47715 3 13 3C18.5228 3 23 7.47715 23 13ZM13 22.4595C18.2243 22.4595 22.4595 18.2243 22.4595 13C22.4595 7.77568 18.2243 3.54054 13 3.54054C7.77568 3.54054 3.54054 7.77568 3.54054 13C3.54054 18.2243 7.77568 22.4595 13 22.4595Z" fill="#FF0000"/>
</g>
<path d="M12 7H14V10.0551L13.4824 15.6753H12.5304L12 10.0551V7ZM12.0447 16.6392H13.9489V19H12.0447V16.6392Z" fill="white"/>
<defs>
<filter id="filter0_d_3551_2987" x="2" y="2" width="24" height="24" filterUnits="userSpaceOnUse" color-interpolation-filters="sRGB">
<feFlood flood-opacity="0" result="BackgroundImageFix"/>
<feColorMatrix in="SourceAlpha" type="matrix" values="0 0 0 0 0 0 0 0 0 0 0 0 0 0 0 0 0 0 127 0" result="hardAlpha"/>
<feOffset dx="1" dy="1"/>
<feGaussianBlur stdDeviation="2"/>
<feComposite in2="hardAlpha" operator="out"/>
<feColorMatrix type="matrix" values="0 0 0 0 0.682353 0 0 0 0 0.607843 0 0 0 0 0.901961 0 0 0 0.15 0"/>
<feBlend mode="normal" in2="BackgroundImageFix" result="effect1_dropShadow_3551_2987"/>
<feBlend mode="normal" in="SourceGraphic" in2="effect1_dropShadow_3551_2987" result="shape"/>
</filter>
<filter id="filter1_d_3551_2987" x="0" y="0" width="28" height="28" filterUnits="userSpaceOnUse" color-interpolation-filters="sRGB">
<feFlood flood-opacity="0" result="BackgroundImageFix"/>
<feColorMatrix in="SourceAlpha" type="matrix" values="0 0 0 0 0 0 0 0 0 0 0 0 0 0 0 0 0 0 127 0" result="hardAlpha"/>
<feOffset dx="1" dy="1"/>
<feGaussianBlur stdDeviation="2"/>
<feComposite in2="hardAlpha" operator="out"/>
<feColorMatrix type="matrix" values="0 0 0 0 0.682353 0 0 0 0 0.607843 0 0 0 0 0.901961 0 0 0 0.15 0"/>
<feBlend mode="normal" in2="BackgroundImageFix" result="effect1_dropShadow_3551_2987"/>
<feBlend mode="normal" in="SourceGraphic" in2="effect1_dropShadow_3551_2987" result="shape"/>
</filter>
</defs>
</svg>
