<svg width="13" height="12" viewBox="0 0 13 12" fill="none" xmlns="http://www.w3.org/2000/svg">
<path d="M12 5.25C12.4142 5.25 12.75 5.58579 12.75 6C12.75 6.41421 12.4142 6.75 12 6.75L12 5.25ZM0.46967 6.53033C0.176777 6.23744 0.176777 5.76256 0.46967 5.46967L5.24264 0.6967C5.53553 0.403806 6.01041 0.403806 6.3033 0.6967C6.59619 0.989593 6.59619 1.46447 6.3033 1.75736L2.06066 6L6.3033 10.2426C6.59619 10.5355 6.59619 11.0104 6.3033 11.3033C6.01041 11.5962 5.53553 11.5962 5.24264 11.3033L0.46967 6.53033ZM12 6.75L1 6.75L1 5.25L12 5.25L12 6.75Z" fill="#75B3FF"/>
</svg>
