<svg width="19" height="21" viewBox="0 0 19 21" fill="none" xmlns="http://www.w3.org/2000/svg">
<path d="M0 19.0312C0 20.1182 0.91183 21 2.03571 21H16.9643C18.0882 21 19 20.1182 19 19.0312V7.875H0V19.0312ZM13.5714 10.9922C13.5714 10.7215 13.8004 10.5 14.0804 10.5H15.7768C16.0567 10.5 16.2857 10.7215 16.2857 10.9922V12.6328C16.2857 12.9035 16.0567 13.125 15.7768 13.125H14.0804C13.8004 13.125 13.5714 12.9035 13.5714 12.6328V10.9922ZM13.5714 16.2422C13.5714 15.9715 13.8004 15.75 14.0804 15.75H15.7768C16.0567 15.75 16.2857 15.9715 16.2857 16.2422V17.8828C16.2857 18.1535 16.0567 18.375 15.7768 18.375H14.0804C13.8004 18.375 13.5714 18.1535 13.5714 17.8828V16.2422ZM8.14286 10.9922C8.14286 10.7215 8.37187 10.5 8.65179 10.5H10.3482C10.6281 10.5 10.8571 10.7215 10.8571 10.9922V12.6328C10.8571 12.9035 10.6281 13.125 10.3482 13.125H8.65179C8.37187 13.125 8.14286 12.9035 8.14286 12.6328V10.9922ZM8.14286 16.2422C8.14286 15.9715 8.37187 15.75 8.65179 15.75H10.3482C10.6281 15.75 10.8571 15.9715 10.8571 16.2422V17.8828C10.8571 18.1535 10.6281 18.375 10.3482 18.375H8.65179C8.37187 18.375 8.14286 18.1535 8.14286 17.8828V16.2422ZM2.71429 10.9922C2.71429 10.7215 2.9433 10.5 3.22321 10.5H4.91964C5.19955 10.5 5.42857 10.7215 5.42857 10.9922V12.6328C5.42857 12.9035 5.19955 13.125 4.91964 13.125H3.22321C2.9433 13.125 2.71429 12.9035 2.71429 12.6328V10.9922ZM2.71429 16.2422C2.71429 15.9715 2.9433 15.75 3.22321 15.75H4.91964C5.19955 15.75 5.42857 15.9715 5.42857 16.2422V17.8828C5.42857 18.1535 5.19955 18.375 4.91964 18.375H3.22321C2.9433 18.375 2.71429 18.1535 2.71429 17.8828V16.2422ZM16.9643 2.625H14.9286V0.65625C14.9286 0.295312 14.6232 0 14.25 0H12.8929C12.5196 0 12.2143 0.295312 12.2143 0.65625V2.625H6.78571V0.65625C6.78571 0.295312 6.48036 0 6.10714 0H4.75C4.37679 0 4.07143 0.295312 4.07143 0.65625V2.625H2.03571C0.91183 2.625 0 3.50684 0 4.59375V6.5625H19V4.59375C19 3.50684 18.0882 2.625 16.9643 2.625Z" fill="#75B3FF"/>
</svg>
