<svg width="29" height="31" viewBox="0 0 29 31" fill="none" xmlns="http://www.w3.org/2000/svg">
<path d="M26.6457 9.33882C26.6502 8.49479 26.4381 7.75908 25.8965 7.13621C23.8834 4.83431 21.7034 2.70391 19.4105 0.690872C18.8373 0.185355 18.1422 -0.00872737 17.3568 0.000299724C14.563 0.0228674 11.7691 0.00481313 8.97518 0.00932668C6.39344 0.0228673 4.45261 1.96369 4.44359 4.54995C4.43456 6.897 4.44359 9.24855 4.43907 11.5956V12.2185C3.32423 12.2185 2.27257 12.2094 1.22091 12.223C0.453612 12.232 0.0112839 12.6653 0.00677032 13.4326C-0.00225677 15.5765 -0.00225677 17.725 0.00677032 19.8689C0.0112839 20.6633 0.453612 21.0876 1.25702 21.0966C2.29062 21.1056 3.32423 21.0966 4.44359 21.0966C4.44359 22.1663 4.44359 23.1819 4.44359 24.1929C4.4481 26.9642 6.34379 28.8599 9.11962 28.8599C13.1051 28.8599 17.0905 28.8599 21.0805 28.8599L19.8664 27.4472C19.6678 27.217 19.5594 26.9326 19.5414 26.6392C16.0569 26.6392 12.568 26.6392 9.08351 26.6392C7.57598 26.6392 6.67328 25.7275 6.66876 24.22C6.66425 23.2044 6.66876 22.1889 6.66876 21.1824C6.86736 21.0244 7.07949 21.0966 7.27358 21.0966C11.399 21.0921 15.5243 21.0921 19.6497 21.0921C20.7239 21.0921 21.094 20.7265 21.094 19.6703C21.094 17.6347 21.094 15.6036 21.094 13.568C21.094 12.6202 20.6878 12.2185 19.7445 12.2185C15.6011 12.2185 11.4576 12.2185 7.3142 12.2185H6.66876V11.8484C6.66876 9.40653 6.65974 6.9647 6.67328 4.52287C6.67779 3.24103 7.5805 2.25256 8.83075 2.23902C11.4757 2.21194 14.1206 2.22999 16.7656 2.22548C17.2259 2.22548 17.5058 2.47372 17.6186 2.87543C17.7134 3.20943 17.754 3.566 17.7585 3.91354C17.7766 5.09609 17.7676 6.27864 17.7676 7.4657C17.7676 8.52187 18.1377 8.88295 19.2119 8.88295C20.3945 8.88295 21.5815 8.86941 22.7641 8.89198C24.1317 8.91455 24.425 9.22147 24.425 10.5575C24.425 13.2205 24.425 15.879 24.425 18.5374H26.2756C26.402 18.5374 26.5238 18.5555 26.6412 18.5871C26.6322 15.5088 26.6322 12.4261 26.6457 9.33882ZM15.583 13.3423C15.9215 14.6513 16.2646 15.9737 16.6482 17.4497C17.0409 15.9782 17.3975 14.6558 17.754 13.3288H19.4692C18.8057 15.5585 18.1512 17.743 17.4832 19.9818H15.7049C15.073 17.7792 14.4411 15.5901 13.7957 13.3423H15.583ZM10.4917 17.4948C10.1622 17.3323 9.8147 17.1969 9.49876 17.0073C8.75402 16.556 8.37488 15.897 8.48321 15.0123C8.60056 14.0826 9.15573 13.5003 10.0359 13.2656C10.8438 13.049 11.6427 13.1257 12.4822 13.559C12.3649 14.0555 12.2565 14.5113 12.1392 15.0123C11.6291 14.9221 11.1913 14.6693 10.7039 14.728C10.4556 14.7596 10.2029 14.7912 10.1487 15.0801C10.0991 15.3373 10.2841 15.4908 10.4872 15.5946C10.8303 15.7706 11.1913 15.9196 11.5344 16.1046C12.4642 16.6101 12.8343 17.3955 12.6537 18.4156C12.4957 19.3047 11.8007 19.9457 10.8303 20.1036C9.9817 20.2435 9.18281 20.1127 8.4155 19.6748C8.45613 19.1648 8.56445 18.6909 8.75402 18.1989C9.25051 18.3524 9.69284 18.6051 10.1984 18.5961C10.5143 18.5871 10.8618 18.5961 10.9657 18.2079C11.074 17.8107 10.7851 17.6392 10.4917 17.4948ZM6.93055 13.6222C6.8809 14.0735 6.8132 14.5384 6.60106 14.9898C5.69835 14.7099 4.81821 14.4978 4.17277 15.4141C3.73496 16.0369 3.73947 17.2917 4.1818 17.8965C4.81821 18.7676 5.68481 18.5735 6.60557 18.3388C6.80417 18.8037 6.8132 19.2596 6.86736 19.6974C5.60808 20.4286 3.79815 20.1307 2.89995 19.061C1.87086 17.8378 1.92051 15.4908 2.99925 14.2721C3.91099 13.2385 5.78411 12.9181 6.93055 13.6222Z" fill="white"/>
<path d="M28.8097 26.5289L25.1627 31.0001L23.3703 28.8039L21.6778 26.7262L21.5156 26.5289H23.8569V20.1817C23.8569 20.1116 23.9109 20.059 23.9733 20.059H26.352C26.4185 20.059 26.4684 20.1159 26.4684 20.1817V26.5289H28.8097Z" fill="white"/>
</svg>
