<svg width="40" height="40" viewBox="0 0 40 40" fill="none" xmlns="http://www.w3.org/2000/svg">
<g clip-path="url(#clip0_2_7143)">
<path d="M5.40152 10.1633C6.44596 9.43326 8.02041 9.57326 8.95819 10.3477L7.88263 8.78438C7.01708 7.54993 7.32708 6.21438 8.56263 5.34771C9.79819 4.48438 13.2993 6.80549 13.2993 6.80549C12.426 5.55882 12.5893 3.97882 13.836 3.10438C15.0826 2.23326 16.8026 2.53438 17.676 3.78326L29.2537 20.1388L27.7782 34.4444L15.4637 29.9533L4.72263 14.0277C3.84152 12.7733 4.14596 11.0433 5.40152 10.1633Z" fill="#EF9645"/>
<path d="M2.99484 19.2621C2.99484 19.2621 1.73706 17.4288 3.57151 16.1721C5.40373 14.9155 6.6604 16.7477 6.6604 16.7477L12.4948 25.2566C12.696 24.921 12.916 24.5899 13.1615 24.2633L5.06373 12.4555C5.06373 12.4555 3.80706 10.6233 5.6404 9.36659C7.47262 8.10993 8.72929 9.94215 8.72929 9.94215L16.346 21.0499C16.6293 20.8188 16.9193 20.5866 17.2182 20.3588L8.38817 7.47993C8.38817 7.47993 7.13151 5.6477 8.96484 4.39104C10.7971 3.13437 12.0537 4.96659 12.0537 4.96659L20.8837 17.8433C21.2082 17.6444 21.5293 17.4721 21.8515 17.2899L13.5982 5.25437C13.5982 5.25437 12.3415 3.42215 14.1737 2.16548C16.006 0.908815 17.2626 2.74104 17.2626 2.74104L25.9893 15.4677L27.316 17.4033C21.8182 21.1744 21.2948 28.2688 24.436 32.8499C25.0637 33.7666 25.9804 33.1388 25.9804 33.1388C22.2104 27.6399 23.3615 21.461 28.8604 17.691L27.2393 9.5777C27.2393 9.5777 26.6337 7.43993 28.7704 6.83326C30.9082 6.22771 31.5148 8.36548 31.5148 8.36548L33.3871 13.9255C34.1293 16.1299 34.9193 18.3266 35.9648 20.4044C38.9171 26.271 37.1537 33.5622 31.5871 37.381C25.5148 41.5444 17.2137 39.9966 13.0493 33.9255L2.99484 19.2621Z" fill="#FFDC5D"/>
<path d="M13.3336 35.6022C8.88911 35.6022 4.398 31.1111 4.398 26.6667C4.398 26.0522 3.948 25.5555 3.33356 25.5555C2.71911 25.5555 2.17578 26.0522 2.17578 26.6667C2.17578 33.3333 6.66689 37.8244 13.3336 37.8244C13.948 37.8244 14.4447 37.2811 14.4447 36.6667C14.4447 36.0522 13.948 35.6022 13.3336 35.6022Z" fill="#5DADEC"/>
<path d="M7.77778 37.7777C4.44444 37.7777 2.22222 35.5555 2.22222 32.2222C2.22222 31.6077 1.72556 31.1111 1.11111 31.1111C0.496667 31.1111 0 31.6077 0 32.2222C0 36.6666 3.33333 39.9999 7.77778 39.9999C8.39222 39.9999 8.88889 39.5033 8.88889 38.8888C8.88889 38.2744 8.39222 37.7777 7.77778 37.7777ZM26.6667 2.22217C26.0533 2.22217 25.5556 2.71995 25.5556 3.33328C25.5556 3.94661 26.0533 4.44439 26.6667 4.44439C31.1111 4.44439 35.5556 8.43217 35.5556 13.3333C35.5556 13.9466 36.0533 14.4444 36.6667 14.4444C37.28 14.4444 37.7778 13.9466 37.7778 13.3333C37.7778 7.20661 33.3333 2.22217 26.6667 2.22217Z" fill="#5DADEC"/>
<path d="M32.2224 0.0466309C31.6091 0.0466309 31.1113 0.497742 31.1113 1.11108C31.1113 1.72441 31.6091 2.26885 32.2224 2.26885C35.5558 2.26885 37.7313 4.74108 37.7313 7.77774C37.7313 8.39108 38.2747 8.88885 38.8891 8.88885C39.5036 8.88885 39.9536 8.39108 39.9536 7.77774C39.9536 3.51441 36.6669 0.0466309 32.2224 0.0466309Z" fill="#5DADEC"/>
</g>
<defs>
<clipPath id="clip0_2_7143">
<rect width="40" height="40" fill="white"/>
</clipPath>
</defs>
</svg>
