<svg width="20" height="20" viewBox="0 0 20 20" fill="none" xmlns="http://www.w3.org/2000/svg">
<path d="M19 9.00146C18.7348 9.00146 18.4804 9.10682 18.2929 9.29436C18.1054 9.48189 18 9.73625 18 10.0015C18.0119 11.8745 17.3703 13.693 16.1857 15.1439C15.001 16.5948 13.3475 17.5871 11.51 17.9501C9.67239 18.313 7.76578 18.0238 6.11851 17.1322C4.47123 16.2407 3.18641 14.8026 2.48533 13.0657C1.78424 11.3288 1.71079 9.40178 2.27762 7.61654C2.84445 5.8313 4.01607 4.2996 5.5907 3.28524C7.16533 2.27089 9.0444 1.83738 10.9043 2.05938C12.7641 2.28137 14.4884 3.14498 15.78 4.50146H13.38C13.1148 4.50146 12.8604 4.60682 12.6729 4.79436C12.4854 4.98189 12.38 5.23625 12.38 5.50146C12.38 5.76668 12.4854 6.02103 12.6729 6.20857C12.8604 6.39611 13.1148 6.50146 13.38 6.50146H17.91C18.1752 6.50146 18.4296 6.39611 18.6171 6.20857C18.8046 6.02103 18.91 5.76668 18.91 5.50146V1.00146C18.91 0.736248 18.8046 0.481894 18.6171 0.294358C18.4296 0.106821 18.1752 0.00146455 17.91 0.00146455C17.6448 0.00146455 17.3904 0.106821 17.2029 0.294358C17.0154 0.481894 16.91 0.736248 16.91 1.00146V2.77146C15.2447 1.17952 13.0808 0.211417 10.784 0.0307936C8.48729 -0.14983 6.19863 0.468109 4.30492 1.78015C2.41121 3.0922 1.02861 5.01787 0.390831 7.23165C-0.246949 9.44544 -0.100787 11.8115 0.804611 13.93C1.71001 16.0484 3.31911 17.7893 5.3599 18.8583C7.40069 19.9273 9.748 20.2589 12.005 19.7969C14.2621 19.335 16.2904 18.1079 17.7471 16.3231C19.2039 14.5383 19.9997 12.3053 20 10.0015C20 9.73625 19.8946 9.48189 19.7071 9.29436C19.5196 9.10682 19.2652 9.00146 19 9.00146Z" fill="white"/>
</svg>
