<svg width="12" height="12" viewBox="0 0 12 12" fill="none" xmlns="http://www.w3.org/2000/svg">
<path d="M11.5987 10.1661L9.30882 7.87659C9.20547 7.77325 9.06536 7.71584 8.91837 7.71584H8.544C9.17791 6.90522 9.55458 5.88563 9.55458 4.77647C9.55458 2.13793 7.41628 0 4.77729 0C2.1383 0 0 2.13793 0 4.77647C0 7.41502 2.1383 9.55295 4.77729 9.55295C5.88663 9.55295 6.9064 9.17634 7.71716 8.54254V8.91685C7.71716 9.06382 7.77458 9.2039 7.87793 9.30723L10.1678 11.5967C10.3837 11.8126 10.7328 11.8126 10.9464 11.5967L11.5964 10.9468C11.8123 10.731 11.8123 10.3819 11.5987 10.1661ZM4.77729 7.71584C3.15347 7.71584 1.83742 6.40231 1.83742 4.77647C1.83742 3.15293 3.15117 1.83711 4.77729 1.83711C6.40111 1.83711 7.71716 3.15064 7.71716 4.77647C7.71716 6.40001 6.4034 7.71584 4.77729 7.71584Z" fill="#232832"/>
</svg>
