<svg width="22" height="25" viewBox="0 0 22 25" fill="none" xmlns="http://www.w3.org/2000/svg">
<path d="M4.91071 20.9822H15.1786V24.5536C15.1786 24.672 15.1315 24.7856 15.0478 24.8693C14.9641 24.953 14.8505 25 14.7321 25H0.446429C0.328028 25 0.214478 24.953 0.130756 24.8693C0.0470344 24.7856 0 24.672 0 24.5536V5.80361C0 5.68521 0.0470344 5.57165 0.130756 5.48793C0.214478 5.40421 0.328028 5.35718 0.446429 5.35718H4.91071V20.9822ZM17.6339 0.669678L20.7589 3.79468H17.6339V0.669678Z" fill="#75B3FF"/>
<path d="M16.2946 4.46429V0H6.69643C6.57803 0 6.46448 0.0470344 6.38076 0.130756C6.29703 0.214478 6.25 0.328028 6.25 0.446429V19.1964C6.25 19.3148 6.29703 19.4284 6.38076 19.5121C6.46448 19.5958 6.57803 19.6429 6.69643 19.6429H20.9821C21.1005 19.6429 21.2141 19.5958 21.2978 19.5121C21.3815 19.4284 21.4286 19.3148 21.4286 19.1964V5.13393H16.9643C16.7867 5.13393 16.6164 5.06338 16.4908 4.93779C16.3652 4.81221 16.2946 4.64189 16.2946 4.46429Z" fill="#75B3FF"/>
</svg>
