<svg width="51" height="51" viewBox="0 0 51 51" fill="none" xmlns="http://www.w3.org/2000/svg">
<path d="M50.4287 25.5C50.4287 39.3125 39.2412 50.5 25.4287 50.5C11.6162 50.5 0.428711 39.3125 0.428711 25.5C0.428711 11.6875 11.6162 0.5 25.4287 0.5C39.2412 0.5 50.4287 11.6875 50.4287 25.5Z" fill="#75B3FF"/>
<path d="M40.2707 16.8416C39.2994 17.2608 38.2795 17.5538 37.2354 17.7136C37.7281 17.6339 38.4377 16.7419 38.7136 16.3782C39.1558 15.8275 39.4902 15.1967 39.6992 14.5196C39.7238 14.4697 39.7435 14.4 39.6992 14.3601C39.6738 14.3477 39.646 14.3413 39.6179 14.3413C39.5897 14.3413 39.5619 14.3477 39.5365 14.3601C38.3995 14.9734 37.1911 15.4405 35.9394 15.7503C35.8966 15.7651 35.8504 15.7668 35.8067 15.7553C35.7629 15.7437 35.7234 15.7195 35.6931 15.6856C35.5955 15.5704 35.4901 15.4621 35.3777 15.3617C34.8584 14.9075 34.2692 14.5422 33.6334 14.2804C32.787 13.9334 31.8739 13.7852 30.9627 13.8469C30.0767 13.9089 29.2128 14.1549 28.425 14.5694C27.6383 14.9882 26.9428 15.5626 26.38 16.2586C25.7982 16.9892 25.3811 17.8395 25.158 18.75C24.9692 19.6079 24.9474 20.4948 25.094 21.3611C25.094 21.5056 25.094 21.5255 24.9708 21.5056C20.0432 20.7631 15.9337 18.9743 12.6125 15.1424C12.4696 14.978 12.3908 14.978 12.2725 15.1424C10.7943 17.3498 11.5236 20.8877 13.3369 22.6168C13.5833 22.846 13.8296 23.0802 14.1006 23.2944C13.2693 23.2298 12.4587 22.9995 11.7157 22.6168C11.5679 22.5221 11.4989 22.5769 11.4841 22.7413C11.488 22.9981 11.5194 23.2538 11.5778 23.5037C11.7241 24.6285 12.163 25.6938 12.8494 26.5911C13.5359 27.4884 14.4454 28.1854 15.4853 28.6112C15.7381 28.7225 16.0026 28.8044 16.2737 28.8553C15.505 29.0144 14.7151 29.0397 13.938 28.9301C13.7656 28.8952 13.7015 28.9849 13.7656 29.1493C14.7954 31.9846 17.0177 32.8317 18.6931 33.31C18.9148 33.3499 19.1366 33.3499 19.3583 33.4047C19.3583 33.4047 19.3337 33.4047 19.3189 33.4446C18.767 34.2967 16.8552 34.9395 15.9633 35.2434C14.3316 35.8311 12.5936 36.0554 10.8682 35.9012C10.5923 35.8613 10.5331 35.8663 10.4592 35.9012C10.3853 35.936 10.4592 36.0158 10.5381 36.0855C10.8879 36.3197 11.2427 36.524 11.6024 36.7233C12.6847 37.3066 13.8263 37.7694 15.0073 38.1036C21.1322 39.8127 28.0308 38.557 32.6281 33.9379C36.24 30.3103 37.5064 25.3025 37.5064 20.2947C37.5064 20.1004 37.7331 19.9908 37.871 19.8861C38.7868 19.1685 39.5937 18.3191 40.2658 17.3648C40.3758 17.223 40.4334 17.0467 40.4284 16.8665V16.8416C40.3939 16.7619 40.389 16.7868 40.2707 16.8416Z" fill="white"/>
</svg>
